<svg width="24" height="18" viewBox="0 0 24 18" fill="none" xmlns="http://www.w3.org/2000/svg">
<path d="M20.086 1.58171C18.5988 0.899327 17.0041 0.396576 15.3366 0.10863C15.3062 0.103072 15.2759 0.11696 15.2603 0.144737C15.0552 0.509529 14.828 0.985431 14.6689 1.35949C12.8754 1.09099 11.0912 1.09099 9.33452 1.35949C9.17539 0.977116 8.93996 0.509529 8.73393 0.144737C8.71829 0.117887 8.68796 0.103999 8.65759 0.10863C6.99106 0.395656 5.39628 0.898407 3.90817 1.58171C3.89529 1.58727 3.88425 1.59653 3.87692 1.60856C0.851949 6.1278 0.0232835 10.536 0.429799 14.8895C0.431639 14.9108 0.443595 14.9311 0.46015 14.9441C2.45594 16.4098 4.3892 17.2995 6.28656 17.8893C6.31693 17.8986 6.3491 17.8875 6.36843 17.8625C6.81725 17.2496 7.21733 16.6033 7.56036 15.9237C7.58061 15.8839 7.56128 15.8366 7.51991 15.8209C6.88531 15.5802 6.28104 15.2867 5.69978 14.9534C5.6538 14.9265 5.65012 14.8607 5.69242 14.8293C5.81474 14.7376 5.93709 14.6422 6.05389 14.5459C6.07502 14.5284 6.10446 14.5246 6.12931 14.5358C9.94796 16.2792 14.0821 16.2792 17.8557 14.5358C17.8805 14.5237 17.91 14.5274 17.932 14.545C18.0489 14.6413 18.1712 14.7376 18.2944 14.8293C18.3367 14.8607 18.334 14.9265 18.288 14.9534C17.7067 15.2931 17.1024 15.5802 16.4669 15.82C16.4256 15.8357 16.4071 15.8839 16.4274 15.9237C16.7778 16.6023 17.1779 17.2486 17.6184 17.8615C17.6368 17.8875 17.6699 17.8986 17.7003 17.8893C19.6068 17.2995 21.5401 16.4098 23.5359 14.9441C23.5534 14.9311 23.5644 14.9117 23.5662 14.8904C24.0528 9.85726 22.7514 5.48525 20.1164 1.60948C20.1099 1.59653 20.0989 1.58727 20.086 1.58171ZM8.13062 12.2386C6.98094 12.2386 6.03364 11.1831 6.03364 9.8869C6.03364 8.59065 6.96257 7.53516 8.13062 7.53516C9.30783 7.53516 10.246 8.59992 10.2276 9.8869C10.2276 11.1831 9.29863 12.2386 8.13062 12.2386ZM15.8838 12.2386C14.7342 12.2386 13.7869 11.1831 13.7869 9.8869C13.7869 8.59065 14.7158 7.53516 15.8838 7.53516C17.0611 7.53516 17.9992 8.59992 17.9808 9.8869C17.9808 11.1831 17.0611 12.2386 15.8838 12.2386Z" fill="#F85C27"/>
</svg>
