<svg width="273" height="318" viewBox="0 0 273 318" fill="none" xmlns="http://www.w3.org/2000/svg">
<g clip-path="url(#clip0_85_380)">
<path d="M136.501 287.656C211.113 287.656 271.599 226.804 271.599 151.739C271.599 76.674 211.113 15.8218 136.501 15.8218C61.8886 15.8218 1.40332 76.674 1.40332 151.739C1.40332 226.804 61.8886 287.656 136.501 287.656Z" fill="#F85C27" stroke="black" stroke-width="13" stroke-miterlimit="10"/>
<path d="M223.599 247.874H49.4034C47.0232 247.874 45.0938 249.815 45.0938 252.209V313.664C45.0938 316.059 47.0232 318 49.4034 318H223.599C225.979 318 227.908 316.059 227.908 313.664V252.209C227.908 249.815 225.979 247.874 223.599 247.874Z" fill="black"/>
<path d="M72.3746 299.655H56.777C55.8227 299.655 55.7816 299.614 55.7816 298.652C55.7816 294.412 55.7816 290.171 55.7816 285.929C55.7816 285.06 55.8442 284.999 56.6863 284.997H67.7282C68.5573 284.997 68.6113 285.054 68.6372 285.866C68.6609 286.598 68.7602 286.707 69.5008 286.709C71.6269 286.709 73.7529 286.709 75.8789 286.709C76.5807 286.709 76.6778 286.602 76.6843 285.888C76.6843 285.223 76.6843 284.556 76.6843 283.891C76.6843 283.47 76.4943 283.257 76.0711 283.259C75.8379 283.259 75.6069 283.259 75.3737 283.259H56.98H56.3322C55.9522 283.259 55.7795 283.057 55.7795 282.686C55.7795 282.525 55.7795 282.362 55.7795 282.201C55.7795 272.933 55.7795 263.659 55.7795 254.379C55.7795 254.199 55.7795 254.019 55.7795 253.841C55.772 253.768 55.7807 253.695 55.805 253.626C55.8292 253.558 55.8685 253.495 55.9198 253.444C55.9712 253.392 56.0333 253.353 56.1017 253.329C56.17 253.305 56.2429 253.296 56.3149 253.304C56.492 253.304 56.6712 253.304 56.8504 253.304H87.9421C88.0673 253.304 88.1925 253.304 88.3178 253.304C88.7863 253.28 89.0022 253.493 89.0022 253.975C89.0022 258.415 89.0022 262.855 89.0022 267.293C89.0022 267.78 88.7863 267.962 88.3134 267.962C84.6688 267.962 81.0242 267.962 77.3795 267.962C76.8808 267.962 76.6821 267.745 76.6735 267.252C76.6519 266.246 76.6282 266.238 75.6306 266.235C73.5938 266.235 71.5578 266.235 69.5224 266.235C68.7559 266.235 68.6458 266.348 68.6393 267.104C68.6393 267.949 68.6393 268.794 68.6393 269.637C68.6393 270.106 68.8552 270.337 69.3195 270.332C69.8376 270.332 70.3558 270.332 70.874 270.332H87.9701C88.9633 270.332 89.0022 270.369 89.0022 271.358V298.641C89.0022 299.627 88.9655 299.662 87.968 299.662L72.3746 299.655Z" fill="#F85C27"/>
<path d="M92.977 276.476V254.536C92.977 254.304 92.977 254.069 92.977 253.837C92.9691 253.764 92.9775 253.691 93.0015 253.622C93.0256 253.554 93.0646 253.491 93.1158 253.44C93.167 253.388 93.229 253.349 93.2973 253.325C93.3655 253.301 93.4383 253.292 93.5103 253.3C93.7068 253.3 93.9033 253.3 94.0997 253.3H125.081C125.207 253.3 125.332 253.3 125.455 253.3C126.077 253.318 126.176 253.415 126.195 254.021C126.195 254.182 126.195 254.343 126.195 254.506C126.195 269.151 126.195 283.797 126.195 298.444C126.195 299.665 126.195 299.665 124.986 299.665H114.91C113.897 299.665 113.871 299.636 113.871 298.596C113.871 294.75 113.871 290.904 113.871 287.059C113.871 286.138 113.813 286.079 112.899 286.079H106.899C105.997 286.079 105.938 286.14 105.936 287.07C105.936 290.934 105.936 294.797 105.936 298.661C105.936 299.621 105.893 299.665 104.939 299.665H94.0069C93.0094 299.665 92.977 299.634 92.977 298.644V276.476ZM105.932 269.331C105.932 270.535 105.932 271.738 105.932 272.939C105.932 273.424 106.105 273.674 106.618 273.672C108.795 273.661 110.971 273.672 113.148 273.672C113.729 273.672 113.856 273.524 113.865 272.916C113.875 271.999 113.865 271.084 113.865 270.17C113.865 268.734 113.854 267.298 113.865 265.862C113.865 265.374 113.649 265.124 113.184 265.087C113.025 265.074 112.865 265.054 112.703 265.054C110.706 265.054 108.709 265.054 106.709 265.054C106.038 265.054 105.934 265.161 105.93 265.841C105.932 266.998 105.938 268.165 105.938 269.331H105.932Z" fill="#F85C27"/>
<path d="M183.769 276.426V254.534C183.769 254.301 183.769 254.067 183.769 253.834C183.762 253.762 183.77 253.689 183.795 253.62C183.819 253.551 183.858 253.489 183.91 253.437C183.961 253.386 184.023 253.347 184.091 253.323C184.16 253.298 184.233 253.29 184.305 253.298C184.501 253.298 184.698 253.298 184.894 253.298C188.414 253.298 191.933 253.328 195.452 253.274C196.249 253.274 196.748 253.621 197.253 254.106C197.797 254.642 198.3 255.222 198.838 255.763C199.866 256.793 200.911 257.807 201.938 258.835C202.429 259.326 202.906 259.827 203.37 260.338C203.48 260.483 203.637 260.585 203.814 260.624C203.991 260.664 204.176 260.64 204.337 260.555C204.519 260.455 204.642 260.09 204.644 259.843C204.67 257.957 204.657 256.07 204.661 254.182C204.661 253.391 204.745 253.313 205.525 253.313H216.137C216.91 253.313 217.001 253.398 217.001 254.182C217.001 269.047 217.001 283.911 217.001 298.774C217.001 299.595 216.927 299.669 216.111 299.671H205.594C204.73 299.671 204.665 299.606 204.665 298.704C204.665 292.574 204.644 286.446 204.689 280.316C204.713 279.924 204.65 279.531 204.505 279.166C204.36 278.8 204.136 278.472 203.849 278.205C202.47 276.871 201.098 275.524 199.732 274.18C199.099 273.558 198.462 272.939 197.864 272.288C197.592 271.992 197.262 271.768 196.942 271.955C196.746 272.07 196.638 272.492 196.638 272.776C196.62 280.631 196.616 288.485 196.625 296.339C196.625 297.208 196.625 298.076 196.625 298.928C196.625 299.549 196.51 299.666 195.906 299.666C192.101 299.666 188.296 299.666 184.49 299.666C183.843 299.666 183.774 299.554 183.774 298.765C183.774 292.132 183.774 285.5 183.774 278.867L183.769 276.426Z" fill="#F85C27"/>
<path d="M130.274 276.462V254.627C130.274 254.41 130.285 254.193 130.274 253.975C130.255 253.506 130.458 253.285 130.939 253.285C134.798 253.285 138.656 253.285 142.514 253.3C142.74 253.313 142.955 253.404 143.121 253.558C144.192 254.597 145.25 255.649 146.295 256.715C147.159 257.584 147.981 258.492 148.836 259.369C149.184 259.75 149.565 260.099 149.974 260.412C150.09 260.483 150.219 260.531 150.354 260.552C150.489 260.572 150.626 260.565 150.758 260.531C150.907 260.483 151.05 260.14 151.052 259.927C151.075 258.022 151.067 256.117 151.069 254.212C151.069 253.359 151.14 253.287 151.982 253.287H162.484C163.324 253.287 163.391 253.359 163.391 254.219C163.391 269.042 163.391 283.867 163.391 298.693C163.391 299.588 163.331 299.651 162.456 299.651H152.008C151.132 299.651 151.069 299.588 151.069 298.695C151.069 292.587 151.034 286.477 151.099 280.368C151.112 279.189 150.667 278.428 149.86 277.705C148.925 276.862 148.04 275.967 147.148 275.07C146.166 274.09 145.218 273.078 144.214 272.122C144.032 271.949 143.659 271.905 143.385 271.942C143.283 271.942 143.182 272.311 143.145 272.524C143.119 272.774 143.115 273.025 143.132 273.276V298.128C143.132 298.326 143.132 298.524 143.132 298.721C143.132 299.59 143.065 299.651 142.223 299.651H131.185C130.345 299.651 130.276 299.579 130.276 298.721C130.275 291.303 130.274 283.883 130.274 276.462Z" fill="#F85C27"/>
<path d="M180.332 276.528V298.418C180.332 298.65 180.332 298.885 180.332 299.117C180.338 299.189 180.329 299.262 180.304 299.331C180.279 299.399 180.239 299.461 180.187 299.511C180.136 299.562 180.073 299.601 180.005 299.624C179.937 299.648 179.864 299.655 179.792 299.647C179.596 299.647 179.399 299.647 179.203 299.647H168.431C167.545 299.647 167.485 299.586 167.485 298.702C167.485 283.874 167.485 269.048 167.485 254.223C167.485 253.344 167.545 253.283 168.435 253.283H179.367C180.289 253.283 180.34 253.335 180.34 254.256L180.332 276.528Z" fill="#F85C27"/>
<path d="M113.344 307.606C113.344 306.222 113.344 304.839 113.344 303.455C113.344 302.803 113.446 302.693 114.085 302.69C116.479 302.69 118.873 302.69 121.266 302.69C121.914 302.69 122.007 302.799 122.013 303.453C122.013 304.322 122.013 305.191 122.013 306.042C122.052 306.509 121.927 306.976 121.661 307.361C121.551 307.513 121.648 307.847 121.7 308.088C121.78 308.445 121.979 308.79 121.996 309.146C122.037 310.061 121.996 310.98 122.013 311.894C122.013 312.403 121.797 312.6 121.301 312.6C118.889 312.6 116.477 312.6 114.066 312.6C113.45 312.6 113.342 312.492 113.338 311.875C113.338 310.448 113.344 309.027 113.344 307.606ZM117.73 306.446C118.14 306.446 118.548 306.446 118.956 306.446C119.273 306.446 119.52 306.325 119.524 305.953C119.533 305.876 119.524 305.799 119.499 305.726C119.473 305.653 119.431 305.587 119.376 305.532C119.322 305.478 119.255 305.437 119.183 305.413C119.11 305.388 119.032 305.38 118.956 305.391C118.159 305.38 117.36 305.391 116.562 305.391C116.422 305.391 116.288 305.446 116.189 305.546C116.09 305.645 116.035 305.78 116.035 305.921C116.035 306.061 116.09 306.196 116.189 306.295C116.288 306.395 116.422 306.451 116.562 306.451C116.95 306.451 117.341 306.44 117.73 306.44V306.446ZM117.753 309.9C118.162 309.924 118.572 309.918 118.98 309.883C119.172 309.852 119.336 309.631 119.513 309.498C119.345 309.348 119.185 309.083 119.01 309.064C118.192 309.019 117.371 309.019 116.553 309.064C116.378 309.064 116.218 309.335 116.052 309.481C116.227 309.618 116.387 309.844 116.579 309.874C116.969 309.914 117.362 309.923 117.753 309.9Z" fill="#F85C27"/>
<path d="M94.7216 312.596C93.5254 312.596 92.3293 312.596 91.131 312.596C90.5156 312.596 90.4141 312.485 90.4033 311.87C90.4033 311.366 90.4033 310.864 90.4033 310.349C90.4033 309.698 90.5134 309.578 91.1482 309.583C91.8541 309.581 92.5583 309.654 93.2491 309.8C94.1883 310.002 95.1923 309.874 96.179 309.845C96.3086 309.845 96.5223 309.602 96.5266 309.468C96.531 309.333 96.3345 309.144 96.1834 309.083C95.9765 309.028 95.7616 309.01 95.5486 309.031C94.1019 309.031 92.6553 309.031 91.2087 309.031C90.5026 309.031 90.4055 308.931 90.4033 308.214C90.4033 306.633 90.4033 305.051 90.4033 303.47C90.4033 302.784 90.5048 302.684 91.1806 302.684C93.5557 302.684 95.9307 302.684 98.3058 302.684C98.9773 302.684 99.0701 302.786 99.0766 303.476C99.0766 304.015 99.0766 304.563 99.0766 305.093C99.0766 305.494 98.8801 305.694 98.485 305.683C97.7406 305.684 96.9979 305.611 96.2675 305.466C95.3478 305.262 94.3524 305.373 93.3916 305.405C93.2534 305.405 93.031 305.736 93.018 305.925C93.018 306.079 93.234 306.303 93.3981 306.396C93.5856 306.452 93.7833 306.466 93.9767 306.435C95.4233 306.435 96.87 306.435 98.3166 306.435C98.9643 306.435 99.0744 306.544 99.0788 307.184C99.0788 308.731 99.0788 310.277 99.0788 311.822C99.0788 312.463 98.9665 312.565 98.3166 312.569C97.1161 312.6 95.9091 312.596 94.7216 312.596Z" fill="#F85C27"/>
<path d="M75.5034 307.584C75.5034 306.237 75.5034 304.891 75.5034 303.544C75.5034 302.777 75.5855 302.69 76.3196 302.688C78.6759 302.688 81.0323 302.688 83.3886 302.688C84.0731 302.688 84.1638 302.788 84.1746 303.468C84.1746 303.844 84.1746 304.222 84.1746 304.597C84.1616 305.269 84.0666 305.366 83.38 305.371C81.8686 305.371 80.3809 305.371 78.8803 305.371C78.5932 305.371 78.293 305.371 78.2045 305.751C78.103 306.185 78.3146 306.435 78.8328 306.439C80.0463 306.455 81.2619 306.439 82.4753 306.439H83.0648C83.1409 306.429 83.2184 306.436 83.2913 306.46C83.3642 306.485 83.4306 306.526 83.4851 306.58C83.5397 306.635 83.581 306.701 83.6058 306.774C83.6306 306.847 83.6383 306.925 83.6283 307.002C83.6283 307.45 83.6283 307.899 83.6283 308.349C83.6434 308.833 83.4124 309.022 82.9417 309.018C81.6462 309.018 80.3723 309.018 79.0876 309.018C78.8923 308.998 78.6951 309.016 78.5068 309.072C78.4239 309.094 78.3506 309.143 78.2983 309.212C78.246 309.28 78.2177 309.364 78.2177 309.45C78.2177 309.536 78.246 309.62 78.2983 309.689C78.3506 309.757 78.4239 309.806 78.5068 309.828C78.6945 309.883 78.8909 309.901 79.0855 309.882C80.5148 309.882 81.942 309.882 83.3692 309.882C84.0536 309.882 84.1486 309.985 84.1594 310.66C84.1594 311.095 84.1594 311.529 84.1594 311.963C84.1594 312.354 83.991 312.574 83.5851 312.572C81.0848 312.572 78.5852 312.572 76.0864 312.572C75.6071 312.572 75.4862 312.291 75.4883 311.872C75.4883 310.436 75.4883 308.998 75.4883 307.563L75.5034 307.584Z" fill="#F85C27"/>
<path d="M198.777 307.626C198.777 306.244 198.777 304.86 198.777 303.477C198.777 302.788 198.875 302.69 199.55 302.69C201.925 302.69 204.3 302.69 206.676 302.69C207.349 302.69 207.44 302.793 207.451 303.479C207.451 303.874 207.451 304.27 207.451 304.665C207.47 305.167 207.248 305.38 206.749 305.375C205.374 305.375 203.998 305.375 202.625 305.375H202.089C201.722 305.375 201.455 305.493 201.463 305.927C201.472 306.362 201.72 306.442 202.066 306.446C202.297 306.446 202.53 306.446 202.761 306.446C203.886 306.446 205.011 306.446 206.136 306.446C206.807 306.446 206.898 306.548 206.909 307.237C206.909 307.578 206.909 307.921 206.909 308.262C206.896 308.914 206.799 309.018 206.159 309.023C204.909 309.023 203.659 309.023 202.411 309.036C202.057 309.036 201.498 308.866 201.504 309.47C201.504 310.033 202.044 309.878 202.385 309.883C203.815 309.9 205.242 309.883 206.671 309.883C207.345 309.883 207.438 309.987 207.448 310.671C207.448 311.106 207.448 311.54 207.448 311.975C207.448 312.409 207.261 312.574 206.861 312.574H199.365C198.877 312.574 198.775 312.277 198.777 311.866C198.782 310.465 198.777 309.046 198.777 307.626Z" fill="#F85C27"/>
<path d="M131.773 307.656C131.773 309.04 131.773 310.421 131.773 311.805C131.773 312.489 131.671 312.583 130.998 312.593C130.639 312.593 130.283 312.593 129.918 312.593C129.486 312.593 129.303 312.376 129.307 311.961C129.307 311.423 129.296 310.875 129.307 310.345C129.307 309.898 129.113 309.694 128.659 309.694C127.909 309.702 127.16 309.702 126.412 309.694C125.96 309.694 125.764 309.911 125.764 310.345C125.764 310.884 125.764 311.431 125.764 311.961C125.764 312.383 125.578 312.596 125.151 312.591C124.723 312.587 124.259 312.591 123.812 312.591C123.208 312.578 123.102 312.476 123.1 311.851C123.1 309.75 123.1 307.649 123.1 305.551C123.1 304.815 123.1 304.08 123.1 303.344C123.1 302.894 123.292 302.692 123.747 302.692C126.21 302.692 128.673 302.692 131.136 302.692C131.635 302.692 131.784 302.957 131.784 303.407C131.766 304.819 131.773 306.237 131.773 307.656ZM127.524 306.987C127.88 306.987 128.236 306.987 128.59 306.987C129.186 306.972 129.29 306.861 129.307 306.246C129.307 306.105 129.307 305.962 129.307 305.812C129.327 305.329 129.091 305.136 128.621 305.145C128.035 305.156 127.448 305.145 126.861 305.145C125.799 305.145 125.714 305.236 125.781 306.318C125.781 306.37 125.781 306.424 125.781 306.479C125.779 306.546 125.79 306.614 125.816 306.677C125.841 306.74 125.879 306.796 125.928 306.843C125.977 306.89 126.035 306.925 126.099 306.947C126.163 306.97 126.23 306.978 126.297 306.972C126.708 306.993 127.116 306.987 127.524 306.987Z" fill="#F85C27"/>
<path d="M208.532 307.641C208.532 306.259 208.532 304.875 208.532 303.494C208.532 302.781 208.625 302.69 209.342 302.688C211.681 302.688 214.019 302.688 216.357 302.688C217.113 302.688 217.201 302.775 217.203 303.516C217.203 304.88 217.19 306.244 217.203 307.608C217.223 307.841 217.183 308.075 217.087 308.289C216.991 308.502 216.842 308.686 216.655 308.825C216.613 308.858 216.574 308.895 216.536 308.933C215.733 309.674 215.724 309.726 216.486 310.48C216.903 310.893 217.272 311.299 217.203 311.961C217.158 312.376 217.011 312.598 216.584 312.593C216.156 312.616 215.728 312.61 215.301 312.574C215.01 312.539 214.742 312.397 214.548 312.176C213.9 311.214 213.036 310.836 211.883 310.973C211.43 311.027 211.205 311.164 211.188 311.651C211.156 312.587 211.132 312.593 210.193 312.596C209.908 312.596 209.62 312.596 209.329 312.596C208.612 312.596 208.519 312.5 208.517 311.79C208.528 310.406 208.532 309.024 208.532 307.641ZM212.971 305.382H212.812C211.048 305.382 211.207 305.234 211.203 307.013C211.203 308.41 211.203 308.41 212.619 308.408C214.036 308.405 214.878 307.454 214.735 306.018C214.697 305.61 214.519 305.388 214.088 305.386C213.721 305.379 213.347 305.382 212.971 305.382Z" fill="#F85C27"/>
<path d="M144.181 306.613C144.145 306.965 144.104 307.187 144.101 307.408C144.101 308.864 144.101 310.319 144.101 311.775C144.101 312.496 144.006 312.585 143.3 312.596C142.944 312.596 142.586 312.596 142.221 312.596C141.517 312.596 141.428 312.498 141.426 311.77C141.426 310.387 141.426 309.003 141.426 307.619C141.426 306.235 141.426 304.852 141.426 303.468C141.426 302.786 141.523 302.701 142.21 302.688C144.039 302.649 144.032 302.656 145.38 304.081C145.909 304.639 146.459 305.167 147.027 305.699C147.153 305.786 147.291 305.854 147.437 305.901C147.525 305.756 147.587 305.598 147.621 305.432C147.645 304.767 147.621 304.102 147.64 303.438C147.66 302.773 147.75 302.701 148.402 302.688C148.722 302.688 149.05 302.688 149.365 302.688C149.981 302.703 150.091 302.803 150.095 303.418C150.095 304.676 150.095 305.934 150.095 307.191C150.095 308.738 150.095 310.282 150.095 311.829C150.095 312.481 149.985 312.581 149.348 312.594C148.972 312.594 148.597 312.594 148.223 312.594C147.85 312.594 147.636 312.376 147.638 311.992C147.638 311.938 147.638 311.883 147.638 311.829C147.612 309.411 147.854 310.204 146.222 308.486C145.777 308.019 145.319 307.565 144.855 307.117C144.639 306.938 144.414 306.77 144.181 306.613Z" fill="#F85C27"/>
<path d="M108.832 307.641C108.832 309.005 108.832 310.371 108.832 311.738C108.832 312.513 108.745 312.596 107.968 312.596C106.223 312.596 106.385 312.737 106.379 310.999C106.379 310.532 106.379 310.065 106.368 309.598C106.378 309.508 106.367 309.418 106.337 309.333C106.306 309.248 106.257 309.171 106.193 309.108C106.128 309.045 106.051 308.998 105.965 308.97C105.88 308.942 105.79 308.934 105.701 308.946C104.915 308.946 104.129 308.946 103.343 308.946C102.911 308.946 102.732 309.163 102.734 309.585C102.734 310.358 102.719 311.132 102.734 311.905C102.734 312.411 102.518 312.628 102.024 312.609C101.614 312.593 101.201 312.609 100.791 312.609C100.173 312.596 100.068 312.498 100.065 311.881C100.065 310.174 100.065 308.466 100.065 306.759C100.065 305.644 100.065 304.53 100.065 303.416C100.065 302.918 100.253 302.679 100.763 302.701C101.195 302.716 101.626 302.716 102.058 302.701C102.568 302.679 102.764 302.918 102.754 303.418C102.738 304.12 102.743 304.821 102.754 305.521C102.754 306.135 102.872 306.244 103.483 306.253C104.233 306.253 104.984 306.253 105.733 306.253C106.165 306.253 106.381 306.035 106.381 305.601C106.381 304.865 106.396 304.128 106.381 303.39C106.381 302.914 106.58 302.695 107.057 302.71C107.43 302.723 107.808 302.723 108.182 302.71C108.667 302.695 108.847 302.927 108.845 303.405C108.834 304.823 108.845 306.244 108.845 307.665L108.832 307.641Z" fill="#F85C27"/>
<path d="M74.4234 307.648C74.4234 309.031 74.4234 310.413 74.4234 311.796C74.4234 312.487 74.322 312.592 73.6569 312.594C71.7698 312.594 71.975 312.763 71.962 310.947C71.962 310.479 71.962 310.012 71.962 309.546C71.962 309.155 71.7871 308.938 71.3834 308.938H69.0213C68.5894 308.938 68.421 309.172 68.4232 309.589C68.4232 310.324 68.4232 311.06 68.4232 311.796C68.4232 312.533 68.326 312.592 67.607 312.6C67.2313 312.6 66.8578 312.6 66.4821 312.6C65.8711 312.585 65.7631 312.485 65.7588 311.868C65.7588 310.348 65.7588 308.814 65.7588 307.289C65.7588 306.031 65.7588 304.776 65.7588 303.518C65.7588 302.79 65.8495 302.703 66.5534 302.695C66.9852 302.695 67.417 302.695 67.8488 302.695C68.2807 302.695 68.434 302.895 68.434 303.292C68.434 304.046 68.4469 304.813 68.434 305.556C68.434 306.025 68.624 306.253 69.1033 306.246C69.8525 306.246 70.6147 306.246 71.3531 306.246C71.785 306.246 71.9728 306.044 71.9728 305.621C71.9728 304.884 71.9879 304.148 71.9728 303.412C71.9728 302.921 72.1585 302.673 72.668 302.695C73.025 302.709 73.3849 302.709 73.7476 302.695C74.2485 302.673 74.458 302.899 74.4537 303.401C74.4148 304.811 74.4234 306.223 74.4234 307.648Z" fill="#F85C27"/>
<path d="M151.184 307.637C151.184 306.307 151.184 304.978 151.184 303.65C151.184 302.736 151.233 302.69 152.164 302.686C152.503 302.686 152.842 302.699 153.181 302.686C153.658 302.669 153.859 302.89 153.854 303.368C153.854 304.75 153.854 306.133 153.854 307.515C153.854 308.054 153.854 308.601 153.854 309.131C153.854 309.783 153.967 309.893 154.597 309.904C155.278 309.913 155.957 309.913 156.633 309.904C157.281 309.904 157.387 309.789 157.389 309.146C157.389 307.332 157.389 305.519 157.389 303.716C157.389 302.732 157.423 302.699 158.423 302.697C159.935 302.697 159.852 302.601 159.852 304.128C159.852 306.642 159.852 309.156 159.852 311.67C159.852 312.539 159.786 312.604 158.952 312.607H152.043C151.261 312.607 151.179 312.524 151.179 311.738C151.184 310.367 151.184 309.003 151.184 307.637Z" fill="#F85C27"/>
<path d="M166.082 307.617C166.082 306.253 166.082 304.886 166.082 303.52C166.082 302.775 166.172 302.695 166.926 302.688C167.282 302.688 167.64 302.688 168.005 302.688C168.454 302.675 168.664 302.881 168.653 303.34C168.653 303.915 168.653 304.489 168.653 305.065C168.653 306.246 168.653 306.216 169.802 306.257C170.135 306.258 170.466 306.191 170.773 306.062C171.081 305.932 171.36 305.742 171.594 305.503C171.828 305.264 172.012 304.98 172.135 304.668C172.259 304.356 172.319 304.023 172.313 303.687C172.265 302.734 172.345 302.692 173.306 302.69C174.863 302.69 174.763 302.584 174.763 304.146C174.759 304.218 174.759 304.291 174.763 304.363C174.908 305.473 174.645 306.379 173.699 307.1C173.107 307.55 173.168 307.632 173.66 308.216C173.707 308.293 173.766 308.362 173.835 308.418C174.74 308.959 174.852 309.809 174.768 310.751C174.731 311.162 174.755 311.579 174.768 311.992C174.781 312.405 174.593 312.6 174.189 312.598C173.742 312.598 173.295 312.598 172.848 312.598C172.776 312.605 172.704 312.596 172.635 312.571C172.567 312.547 172.506 312.507 172.455 312.455C172.404 312.403 172.366 312.34 172.342 312.271C172.319 312.203 172.311 312.129 172.319 312.057C172.311 311.967 172.311 311.877 172.319 311.788C172.522 310.66 171.926 309.874 171.127 309.257C170.814 309.016 170.303 308.97 169.879 308.955C168.67 308.916 168.67 308.942 168.668 310.169C168.668 310.78 168.668 311.392 168.668 312.003C168.668 312.4 168.483 312.604 168.083 312.602C167.684 312.6 167.219 312.602 166.788 312.602C166.278 312.622 166.088 312.385 166.092 311.881C166.082 310.458 166.082 309.046 166.082 307.617Z" fill="#F85C27"/>
<path d="M60.3502 302.688C61.5464 302.688 62.7425 302.688 63.9387 302.688C64.554 302.688 64.6534 302.799 64.6663 303.413C64.6663 303.809 64.6663 304.204 64.6663 304.6C64.6534 305.251 64.5562 305.355 63.9214 305.368C63.4572 305.368 62.993 305.368 62.5288 305.368C61.881 305.379 61.7774 305.486 61.7731 306.129C61.7731 307.977 61.7731 309.822 61.7731 311.677C61.7731 312.522 61.7061 312.582 60.849 312.587C60.4905 312.587 60.1343 312.587 59.7694 312.587C59.2944 312.604 59.0893 312.385 59.0936 311.907C59.0936 310.651 59.0936 309.394 59.0936 308.136C59.0936 307.484 59.0936 306.843 59.0936 306.198C59.0936 305.462 58.9943 305.373 58.2472 305.366C57.7117 305.366 57.1676 305.366 56.6408 305.366C56.1917 305.366 55.993 305.171 55.993 304.715C55.993 304.258 56.0038 303.783 55.993 303.316C55.9822 302.849 56.209 302.677 56.6537 302.679C57.8888 302.694 59.1195 302.69 60.3502 302.688Z" fill="#F85C27"/>
<path d="M179.269 307.602C179.269 306.218 179.269 304.834 179.269 303.45C179.269 302.799 179.371 302.701 180.016 302.688C180.409 302.688 180.802 302.688 181.195 302.688C181.83 302.701 181.929 302.799 181.934 303.461C181.934 305.169 181.934 306.876 181.934 308.581C181.934 308.779 181.934 308.979 181.934 309.174C181.951 309.785 182.055 309.9 182.668 309.902C184.132 309.902 185.596 309.902 187.062 309.902C187.845 309.902 187.925 309.987 187.925 310.771C187.925 311.129 187.925 311.49 187.925 311.857C187.912 312.496 187.811 312.602 187.161 312.604C185.535 312.604 183.909 312.604 182.283 312.604C181.498 312.604 180.712 312.604 179.926 312.604C179.449 312.604 179.248 312.398 179.252 311.922C179.278 310.478 179.269 309.046 179.269 307.602Z" fill="#F85C27"/>
<path d="M189.022 307.593C189.022 306.209 189.022 304.825 189.022 303.442C189.022 302.79 189.128 302.701 189.778 302.688C190.154 302.688 190.529 302.688 190.903 302.688C191.587 302.688 191.685 302.786 191.689 303.468C191.689 305.175 191.689 306.883 191.689 308.59C191.689 308.788 191.689 308.985 191.689 309.183C191.711 309.785 191.814 309.9 192.432 309.902C193.896 309.902 195.362 309.902 196.826 309.902C197.605 309.902 197.689 309.989 197.689 310.771C197.689 311.095 197.689 311.419 197.689 311.742C197.689 312.498 197.596 312.589 196.86 312.589C195.001 312.589 193.144 312.589 191.285 312.589C190.769 312.589 190.251 312.589 189.733 312.589C189.126 312.576 189.02 312.474 189.018 311.848C189.018 310.434 189.022 309.014 189.022 307.593Z" fill="#F85C27"/>
<path d="M109.808 307.608C109.808 306.262 109.808 304.915 109.808 303.568C109.808 302.758 109.879 302.699 110.704 302.686C111.08 302.686 111.455 302.686 111.829 302.686C112.278 302.686 112.477 302.884 112.477 303.338C112.477 304.252 112.477 305.169 112.477 306.083C112.477 307.933 112.477 309.782 112.477 311.631C112.477 312.539 112.418 312.594 111.496 312.596C111.157 312.596 110.816 312.596 110.479 312.596C110.002 312.613 109.801 312.392 109.806 311.916C109.806 310.48 109.806 309.044 109.806 307.608H109.808Z" fill="#F85C27"/>
<path d="M140.56 307.695C140.56 309.059 140.56 310.423 140.56 311.788C140.56 312.498 140.461 312.585 139.746 312.596C139.373 312.596 138.997 312.596 138.624 312.596C138.006 312.583 137.898 312.485 137.896 311.87C137.896 310.145 137.896 308.423 137.896 306.7C137.896 305.614 137.896 304.508 137.896 303.414C137.896 302.799 138.004 302.705 138.624 302.692C139.017 302.692 139.41 302.692 139.803 302.692C140.45 302.705 140.556 302.801 140.558 303.446C140.567 304.858 140.56 306.277 140.56 307.695Z" fill="#F85C27"/>
<path d="M178.402 307.654C178.402 309.037 178.402 310.419 178.402 311.801C178.402 312.489 178.3 312.583 177.629 312.593C177.236 312.593 176.843 312.593 176.452 312.593C175.845 312.578 175.739 312.478 175.737 311.855C175.737 309.754 175.737 307.654 175.737 305.555C175.737 304.819 175.737 304.083 175.737 303.346C175.737 302.912 175.923 302.679 176.385 302.694C176.847 302.71 177.279 302.708 177.724 302.694C178.231 302.675 178.423 302.912 178.419 303.409C178.389 304.819 178.4 306.237 178.402 307.654Z" fill="#F85C27"/>
<path d="M112.8 50.1147C119.236 48.3334 125.809 48.0576 132.411 48.0641C136.382 48.0641 140.353 48.0315 144.323 48.0858C149.089 48.1488 153.843 48.4268 158.518 49.4739C159.401 49.6715 160.284 49.8801 161.236 50.0995C162.1 48.7505 162.912 47.3863 163.814 46.0895C166.019 42.9224 168.145 39.6923 170.527 36.6663C172.881 33.6637 175.389 30.7866 178.041 28.0469C182.616 23.3309 187.509 18.9517 193.062 15.4109C196.415 13.2713 199.924 11.3945 203.845 10.5125C207.407 9.71099 210.935 9.70664 214.256 11.5031C216.428 12.6804 218.088 14.44 219.393 16.5231C221.653 20.1377 222.964 24.139 223.91 28.2663C224.397 30.3972 224.853 32.5434 225.158 34.707C225.699 38.5649 226.123 42.4402 226.585 46.3089C226.874 48.7201 227.174 51.1291 227.407 53.5447C227.574 55.2824 227.641 57.0202 227.751 58.7689C227.967 62.301 228.277 65.8287 228.398 69.3629C228.554 74.3352 228.699 79.3161 228.586 84.2884C228.545 87.5079 228.215 90.717 227.6 93.8767C227.34 95.2369 227.296 96.6298 227.468 98.0039C227.794 100.973 227.861 103.973 227.992 106.962C228.157 110.629 228.327 114.296 228.401 117.962C228.48 121.916 228.426 125.872 228.478 129.825C228.534 134.215 228.502 138.614 228.765 142.993C229.089 148.404 229.629 153.804 230.173 159.198C230.605 163.556 231.205 167.9 231.739 172.247C232.145 175.559 232.712 178.861 232.943 182.185C233.306 187.495 232.427 192.816 230.378 197.723C227.861 203.866 224.514 209.542 220.649 214.916C217.901 218.725 214.82 222.278 211.443 225.534C208.927 228.016 206.233 230.307 203.383 232.39C201.068 234.049 198.848 235.844 196.473 237.405C193.824 239.143 191.099 240.79 188.307 242.286C184.756 244.194 181.128 245.979 177.488 247.697C173.477 249.587 169.356 251.232 165.148 252.622C161.808 253.736 158.455 254.818 155.057 255.741C152.433 256.454 149.747 256.966 147.068 257.44C145.352 257.717 143.622 257.894 141.886 257.97C139.714 258.1 137.531 258.235 135.359 258.172C133.234 258.107 131.11 257.837 128.996 257.581C127.154 257.364 125.304 257.125 123.492 256.725C120.754 256.124 118.027 255.45 115.337 254.668C112.496 253.843 109.68 252.909 106.89 251.916C104.399 251.03 101.937 250.05 99.4997 249.02C97.3513 248.115 95.2332 247.128 93.1431 246.092C90.3362 244.708 87.5294 243.34 84.8304 241.789C81.5917 239.936 78.407 238.007 75.3302 235.911C71.0957 233.037 67.0978 229.826 63.375 226.307C60.5278 223.594 57.8647 220.691 55.4035 217.618C52.4855 213.944 49.872 210.036 47.5895 205.932C45.5426 202.295 43.6707 198.566 42.4788 194.534C41.7805 192.048 41.3114 189.503 41.0775 186.931C40.6846 183.191 41.2827 179.546 41.7663 175.872C42.0211 173.937 42.2867 172.006 42.522 170.07C42.9884 166.236 43.4612 162.402 43.8844 158.557C44.1975 155.703 44.4803 152.844 44.6963 149.981C44.9921 146.045 45.2857 142.107 45.4433 138.164C45.5707 134.936 45.4887 131.7 45.5081 128.467C45.5254 125.596 45.5254 122.724 45.5901 119.852C45.6787 115.903 45.7694 111.952 45.955 108.005C46.1343 104.145 46.4603 100.291 46.6611 96.4312C46.7043 95.5754 46.5251 94.6934 46.3804 93.8397C45.8017 90.4206 45.5772 86.9711 45.3526 83.5129C45.0741 79.2075 45.4153 74.9239 45.4973 70.6315C45.5534 67.7707 45.7542 64.912 45.955 62.0555C46.1213 59.6834 46.3998 57.32 46.6028 54.9479C46.7798 52.8083 46.8748 50.6599 47.0713 48.5224C47.2484 46.5826 47.5031 44.6537 47.7406 42.7182C47.9069 41.2954 48.0451 39.8682 48.2545 38.4519C48.5813 36.2522 48.9354 34.0553 49.3168 31.8613C49.8605 28.521 50.7246 25.2415 51.897 22.0689C53.1925 18.6889 54.7428 15.4978 57.5108 13.0562C59.8189 11.023 62.5135 10.089 65.5536 10.0412C69.1205 9.98469 72.4132 11.0013 75.613 12.5045C79.1173 14.151 82.3345 16.2494 85.4026 18.5868C89.6799 21.8451 93.575 25.5379 97.2779 29.448C101.097 33.4435 104.576 37.7546 107.678 42.3359C109.356 44.8861 111.023 47.4472 112.8 50.1147ZM45.385 174.213C45.1691 175.464 44.9122 176.711 44.774 177.971C44.5451 180.067 44.2515 182.172 44.2472 184.27C44.2472 188.749 45.3267 193.018 47.0994 197.112C48.5449 200.523 50.2741 203.805 52.2684 206.922C53.9352 209.488 55.4898 212.136 57.3553 214.556C59.4195 217.221 61.7189 219.712 64.0292 222.174C67.1881 225.543 70.8327 228.365 74.5097 231.13C77.5964 233.495 80.8518 235.628 84.2496 237.512C87.9353 239.517 91.5907 241.578 95.3778 243.377C100.59 245.874 105.968 248.003 111.474 249.748C114.713 250.771 117.937 251.829 121.255 252.592C124.244 253.318 127.272 253.871 130.324 254.249C133.13 254.564 135.937 254.792 138.744 254.649C141.119 254.529 143.464 254.236 145.82 253.969C146.878 253.851 147.925 253.63 148.97 253.419C150.697 253.065 152.451 252.724 154.171 252.298C155.514 251.966 156.831 251.523 158.153 251.11C160.759 250.295 163.384 249.544 165.954 248.629C168.564 247.697 171.123 246.622 173.688 245.571C179.559 243.166 185.162 240.216 190.628 237.004C195.705 233.979 200.52 230.531 205.023 226.696C209.611 222.827 213.728 218.425 217.287 213.582C220.378 209.387 223.098 204.928 225.417 200.256C226.969 197.147 228.254 193.941 229.005 190.535C229.493 188.315 229.903 186.051 229.735 183.801C229.5 180.627 229.009 177.471 228.627 174.308C228.429 172.77 228.221 171.232 228.031 169.692C227.684 166.886 227.319 164.079 227.01 161.266C226.686 158.331 226.41 155.401 226.129 152.453C225.861 149.629 225.481 146.819 225.384 143.995C225.203 138.929 225.181 133.857 225.117 128.789C225.069 125.077 225.099 121.364 225.019 117.652C224.965 115.221 224.745 112.795 224.65 110.366C224.529 107.26 224.501 104.149 224.35 101.045C224.255 99.09 224.251 97.1068 223.342 95.3103C222.551 93.7507 221.729 92.1997 220.818 90.7074C218.166 86.3629 214.843 82.5593 211.335 78.9208C207.857 75.31 204.087 71.9961 200.064 69.0132C196.749 66.5403 193.224 64.3669 189.529 62.5182C187.396 61.456 187.349 61.267 188.32 59.0426C192.252 50.0452 198.088 42.464 205.332 35.9408C209.601 32.116 214.223 28.7097 219.136 25.7682C219.361 25.6176 219.577 25.4536 219.783 25.2773C218.92 22.3621 217.786 19.662 215.951 17.303C213.958 14.7354 211.369 13.3212 208.1 13.2387C205.004 13.1627 202.156 14.1206 199.401 15.3979C195.774 17.0814 192.544 19.4057 189.432 21.8907C184.338 25.9675 179.672 30.559 175.508 35.5932C172.874 38.7734 170.477 42.1578 168.057 45.5117C166.804 47.2495 165.734 49.1198 164.55 50.9814C164.766 51.1161 164.922 51.216 165.077 51.3224C165.883 51.8655 166.142 52.4955 165.861 53.2253C165.563 53.9987 164.831 54.3701 163.918 54.192C163.569 54.113 163.224 54.0158 162.886 53.9009C157.919 52.3428 152.757 51.5038 147.556 51.4093C141.562 51.3311 135.566 51.3529 129.57 51.329C123.222 51.3051 116.98 52.0284 110.909 53.9726C110.526 54.1005 110.129 54.1836 109.728 54.2202C109.385 54.267 109.037 54.1951 108.74 54.0165C108.443 53.8379 108.216 53.5632 108.095 53.2373C107.974 52.9115 107.966 52.5539 108.074 52.2233C108.182 51.8927 108.398 51.6088 108.687 51.418C108.903 51.2573 109.119 51.1269 109.335 50.9836C109.294 50.8432 109.242 50.7066 109.179 50.5752C106.633 46.5826 104.045 42.6248 101.121 38.8864C97.6034 34.3589 93.7274 30.1251 89.5309 26.2265C85.1327 22.1666 80.5186 18.4065 75.138 15.7129C72.1951 14.2379 69.1486 13.1735 65.8062 13.2322C63.3616 13.2514 61.0167 14.2096 59.251 15.9106C57.8979 17.2069 56.7992 18.7477 56.0123 20.4527C55.2588 22.0124 54.4664 23.5851 54.2116 25.3207C56.2498 26.6632 58.2665 27.9274 60.2227 29.2872C66.6547 33.7073 72.4099 39.0495 77.3058 45.1446C80.8835 49.6216 83.6774 54.5786 86.005 59.8094C86.4887 60.8955 86.2209 61.5841 85.1413 62.1598C83.2845 63.1481 81.3628 64.0344 79.5837 65.1488C75.9801 67.3997 72.5484 69.9178 69.317 72.6821C65.3866 76.0347 61.7295 79.6986 58.3809 83.6389C55.574 86.9537 53.0716 90.4771 51.0765 94.3654C50.1911 96.1092 49.714 98.0337 49.6817 99.9915C49.5716 103.58 49.3989 107.16 49.2629 110.753C49.1031 114.976 48.8915 119.198 48.831 123.423C48.7555 127.931 48.8073 132.438 48.831 136.946C48.8483 141.742 48.4122 146.504 47.9674 151.282C47.5982 155.134 47.2376 158.99 46.8252 162.837C46.5704 165.213 46.2206 167.576 45.9205 169.946C45.7197 171.367 45.5556 172.792 45.385 174.213ZM49.3794 90.1882C58.016 77.3046 68.8484 67.1624 82.4143 59.7768C76.1032 46.2046 65.8969 36.3666 53.3004 28.6095C53.1795 29.0439 53.0845 29.3437 53.0133 29.65C52.8211 30.6253 52.6333 31.605 52.4649 32.5803C52.0848 34.7721 51.6876 36.9596 51.3572 39.1601C51.1413 40.6111 51.0333 42.0796 50.8736 43.5415C50.5821 46.2264 50.2258 48.9069 50.0099 51.5983C49.7551 54.6851 49.6148 57.7827 49.4205 60.8738C49.2175 64.0887 48.9627 67.2993 48.8159 70.5164C48.708 72.9058 48.7295 75.2953 48.7015 77.6848C48.6352 81.8634 48.861 86.0415 49.3773 90.1882H49.3794ZM224.613 90.2121C224.639 89.6734 224.648 89.2932 224.676 88.9088C224.877 86.0848 225.19 83.2848 225.259 80.4674C225.397 74.7392 225.095 69.0175 224.676 63.3067C224.426 59.9028 224.348 56.4859 224.067 53.0841C223.789 49.7193 223.376 46.3654 222.972 43.0136C222.603 39.9356 222.208 36.8618 221.744 33.7968C221.487 32.0938 221.07 30.4146 220.708 28.6356C220.304 28.8528 220.014 28.9896 219.76 29.1656C217.341 30.836 214.867 32.4239 212.524 34.2008C204.233 40.4743 197.505 48.1249 192.684 57.4091C192.272 58.1998 191.969 59.0469 191.635 59.8224C205.19 67.2211 216.026 77.3481 224.611 90.2121H224.613Z" fill="#060404"/>
<path d="M45.3853 174.215C45.558 172.792 45.7221 171.367 45.9035 169.946C46.2036 167.576 46.5512 165.213 46.8081 162.837C47.2205 158.99 47.5811 155.134 47.9503 151.282C48.4037 146.504 48.8399 141.746 48.814 136.946C48.7945 132.438 48.7427 127.931 48.814 123.423C48.8831 119.198 49.0947 114.976 49.2458 110.753C49.3818 107.166 49.5546 103.584 49.6647 99.9915C49.697 98.0336 50.1741 96.1092 51.0595 94.3654C53.0545 90.4771 55.5527 86.9537 58.3639 83.6389C61.7125 79.6986 65.3696 76.0346 69.2999 72.6821C72.5313 69.9178 75.9631 67.3997 79.5667 65.1487C81.3458 64.0344 83.2674 63.1481 85.1243 62.1597C86.2039 61.5841 86.4738 60.8977 85.9879 59.8094C83.6604 54.5786 80.8665 49.6216 77.2888 45.1446C72.3929 39.0495 66.6376 33.7072 60.2056 29.2872C58.2494 27.9317 56.2328 26.6631 54.1946 25.3207C54.4493 23.5829 55.2417 22.0124 55.9953 20.4527C56.7822 18.7477 57.8809 17.2069 59.234 15.9105C60.9997 14.2095 63.3446 13.2514 65.7892 13.2322C69.1315 13.1735 72.1781 14.2379 75.121 15.7129C80.5016 18.413 85.1157 22.1666 89.5138 26.2265C93.7103 30.1251 97.5864 34.3588 101.104 38.8863C104.028 42.6248 106.616 46.5826 109.162 50.5752C109.225 50.7066 109.277 50.8432 109.317 50.9835C109.102 51.1247 108.871 51.2551 108.67 51.418C108.378 51.6089 108.16 51.8947 108.052 52.2277C107.944 52.5606 107.952 52.9208 108.076 53.2483C108.199 53.5757 108.431 53.8507 108.731 54.0275C109.032 54.2044 109.383 54.2724 109.728 54.2202C110.123 54.1798 110.512 54.0946 110.887 53.966C116.959 52.011 123.194 51.2985 129.549 51.3224C135.545 51.3463 141.541 51.3224 147.534 51.4028C152.736 51.4973 157.898 52.3362 162.864 53.8944C163.203 54.0093 163.548 54.1064 163.896 54.1854C164.816 54.3636 165.548 53.9921 165.84 53.2188C166.12 52.4889 165.861 51.859 165.056 51.3159C164.9 51.2095 164.738 51.1095 164.529 50.9749C165.712 49.1133 166.783 47.243 168.035 45.5052C170.456 42.1512 172.852 38.7712 175.487 35.5867C179.653 30.549 184.321 25.9545 189.42 21.8755C192.531 19.3905 195.761 17.0662 199.388 15.3827C202.143 14.1054 205.002 13.1474 208.088 13.2235C211.356 13.306 213.945 14.7201 215.938 17.2877C217.773 19.6468 218.911 22.3469 219.771 25.262C219.565 25.4384 219.348 25.6023 219.123 25.753C214.211 28.6945 209.589 32.1008 205.32 35.9256C198.076 42.4423 192.239 50.0299 188.308 59.0274C187.336 61.2539 187.384 61.4429 189.517 62.503C193.211 64.3517 196.737 66.5251 200.051 68.9979C204.074 71.9808 207.844 75.2948 211.322 78.9055C214.831 82.544 218.153 86.3542 220.805 90.6921C221.716 92.1845 222.532 93.7333 223.329 95.2951C224.238 97.0916 224.242 99.0835 224.337 101.03C224.488 104.134 224.516 107.245 224.637 110.351C224.732 112.779 224.953 115.206 225.007 117.637C225.086 121.349 225.056 125.061 225.104 128.774C225.169 133.844 225.19 138.916 225.371 143.979C225.473 146.803 225.849 149.627 226.116 152.438C226.397 155.377 226.673 158.316 226.997 161.251C227.306 164.075 227.671 166.87 228.019 169.677C228.209 171.217 228.416 172.755 228.615 174.293C227.593 173.478 226.598 172.623 225.544 171.849C216.59 165.267 206.997 160.236 195.653 159.502C198.02 156.966 199.95 154.05 201.362 150.874C203.047 147.073 203.95 142.969 204.015 138.807C204.031 136.129 203.693 133.461 203.009 130.872C202.454 128.678 201.804 126.508 201.202 124.342C196.627 123.908 192.201 123.988 187.815 124.938C173.235 128.105 163.652 136.831 159.198 151.174C158.186 154.538 157.63 158.025 157.546 161.54C157.432 164.978 157.464 168.398 158.442 171.736L155.966 173.276C150.445 168.369 144.127 165.949 136.883 165.96C129.639 165.971 123.352 168.45 117.926 173.283L115.441 171.734C115.668 170.807 115.996 169.892 116.104 168.951C116.713 163.597 116.516 158.275 115.21 153.031C112.383 141.625 105.887 133.094 95.2615 127.95C88.1838 124.525 80.6527 123.606 72.8064 124.351C72.7071 124.612 72.571 124.896 72.4847 125.196C72.0528 126.688 71.5908 128.174 71.2129 129.68C70.2025 133.681 69.6087 137.717 70.1334 141.868C70.9495 148.352 73.4045 154.069 77.7897 158.92C77.9562 159.131 78.1077 159.354 78.2431 159.587C76.0665 159.61 73.899 159.875 71.7808 160.38C63.3774 162.42 55.8636 166.314 48.9414 171.441C47.7387 172.336 46.5706 173.281 45.3853 174.215ZM114.832 129.069C116.004 128.852 117.442 128.73 118.792 128.313C121.568 127.444 123.268 125.596 123.652 122.589C123.89 120.743 123.512 119.018 122.909 117.317C121.305 112.793 118.436 109.165 114.849 106.093C110.417 102.298 105.489 99.5027 99.556 98.9771C96.6174 98.7164 93.8364 99.2681 91.5456 101.282C89.0906 103.439 88.1838 106.313 88.4256 109.471C88.8942 115.61 91.9537 120.332 96.8873 123.784C102.171 127.477 108.305 128.533 114.832 129.069ZM159.403 129.047L159.416 128.965C159.848 128.965 160.28 128.997 160.725 128.965C164.648 128.654 168.51 127.795 172.198 126.412C177.179 124.514 181.01 121.236 183.516 116.481C184.954 113.753 185.773 110.853 185.492 107.727C185.108 103.443 182.547 100.243 178.438 99.2725C175.679 98.6208 172.986 98.9423 170.339 99.7547C163.814 101.755 158.626 105.698 154.465 111.05C152.464 113.631 150.998 116.501 150.38 119.739C149.534 124.175 151.648 127.492 155.994 128.541C157.108 128.819 158.265 128.887 159.403 129.047Z" fill="#F85C27"/>
<path d="M195.661 159.516C207.006 160.25 216.605 165.281 225.553 171.863C226.606 172.636 227.602 173.492 228.623 174.306C229.005 177.469 229.487 180.625 229.731 183.799C229.899 186.06 229.489 188.324 229.001 190.533C228.249 193.939 226.965 197.145 225.412 200.254C223.094 204.926 220.374 209.385 217.283 213.581C213.723 218.423 209.607 222.825 205.019 226.694C200.516 230.529 195.701 233.977 190.624 237.002C185.157 240.214 179.554 243.164 173.683 245.569C171.118 246.62 168.56 247.696 165.949 248.627C163.38 249.542 160.755 250.294 158.148 251.108C156.827 251.521 155.51 251.964 154.167 252.296C152.44 252.731 150.712 253.063 148.966 253.417C147.921 253.635 146.873 253.852 145.815 253.967C143.46 254.234 141.104 254.527 138.74 254.647C135.933 254.79 133.126 254.562 130.319 254.247C127.267 253.869 124.24 253.316 121.251 252.59C117.932 251.827 114.711 250.769 111.47 249.746C105.964 248.001 100.585 245.872 95.3735 243.375C91.5928 241.568 87.9309 239.506 84.2453 237.51C80.849 235.626 77.5951 233.494 74.5097 231.13C70.8391 228.365 67.188 225.543 64.0292 222.174C61.7189 219.713 59.4194 217.221 57.3553 214.556C55.4898 212.145 53.9352 209.488 52.2683 206.923C50.2741 203.805 48.5449 200.523 47.0994 197.113C45.3289 193.018 44.2385 188.75 44.2471 184.27C44.2471 182.17 44.5451 180.065 44.774 177.971C44.9121 176.711 45.1777 175.464 45.385 174.213C46.5725 173.288 47.7406 172.336 48.9519 171.441C55.8741 166.315 63.3879 162.42 71.7913 160.38C73.9096 159.876 76.077 159.61 78.2536 159.587C78.5624 159.82 78.882 160.041 79.1799 160.289C80.1235 161.08 81.0281 161.922 82.0041 162.678C86.3224 165.989 91.3013 167.746 96.5438 168.876C102.792 170.22 109.155 170.809 115.464 171.756L117.95 173.305C123.375 168.472 129.669 165.993 136.907 165.982C144.144 165.972 150.468 168.391 155.989 173.298L158.464 171.758L165.654 170.787C170.291 170.16 174.925 169.523 179.472 168.398C185.028 167.019 190.08 164.657 194.329 160.721C194.77 160.304 195.23 159.913 195.661 159.516ZM84.5735 198.961C84.5238 199.55 84.4871 200.265 84.4007 200.962C84.1611 202.871 84.0747 204.783 84.3813 206.69C84.9686 210.355 86.6419 213.474 89.1573 216.152C92.2859 219.485 96.1378 221.64 100.43 223.036C106.72 225.08 113.137 225.341 119.606 224.157C125.908 223.002 131.682 220.586 136.708 216.511C136.78 216.46 136.86 216.421 136.943 216.394C138.371 217.362 139.712 218.366 141.134 219.218C146.036 222.183 151.367 223.875 157.034 224.537C162.877 225.219 168.605 224.755 174.178 222.8C178.68 221.227 182.672 218.837 185.721 215.075C188.819 211.252 190.255 206.899 189.633 201.931C189.506 200.914 189.432 199.889 189.346 198.981C190.685 197.543 192.179 198.234 193.524 198.384C194.172 197.441 194.103 197.009 193.219 196.657C191.708 196.061 190.259 196.248 188.901 197.091C188.055 197.61 187.606 198.368 187.664 199.385C187.705 200.061 187.744 200.738 187.85 201.405C188.387 204.783 187.951 208.009 186.371 211.052C184.859 213.952 182.659 216.215 179.977 218.025C175.802 220.849 171.153 222.324 166.187 222.845C157.82 223.714 149.903 222.254 142.555 218.066C140.91 217.13 139.392 215.966 137.93 214.982V213.085C138.349 212.955 138.72 212.833 139.098 212.723C146.491 210.563 152.764 206.64 157.784 200.734C159.373 198.868 160.651 196.813 161.348 194.434C162.814 189.438 159.984 184.603 154.914 183.467C154.024 183.267 153.124 183.106 152.222 182.987C148.119 182.444 143.995 182.296 139.867 182.296C136.097 182.296 132.323 182.309 128.557 182.476C125.709 182.604 122.864 182.911 120.033 183.265C114.514 183.947 110.295 189.41 113.124 195.864C113.911 197.657 114.96 199.321 116.237 200.801C120.458 205.778 125.897 209.56 132.016 211.773C133.351 212.26 134.709 212.679 136.069 213.133V214.847C135.611 215.212 135.186 215.568 134.743 215.903C125.653 222.78 112.092 225.013 101.091 221.446C96.9432 220.102 93.21 218.062 90.239 214.795C86.7974 211.009 85.3011 206.592 86.1496 201.457C86.2468 200.827 86.3095 200.192 86.3375 199.554C86.369 199.215 86.3329 198.873 86.2313 198.548C86.1297 198.223 85.9647 197.922 85.7459 197.662C84.6879 196.435 82.1163 195.942 80.6676 196.689C79.9054 197.082 79.8298 197.452 80.3955 198.388C81.7277 198.24 83.2175 197.56 84.5756 198.961H84.5735ZM76.5134 174.198C75.844 174.352 75.4468 174.68 75.5288 175.369C75.5649 175.608 75.6881 175.825 75.8744 175.978C76.0608 176.131 76.297 176.209 76.5371 176.196C77.0186 176.155 77.377 175.897 77.4548 175.408C77.5562 174.732 77.2021 174.367 76.5155 174.189L76.5134 174.198ZM198.419 175.162C198.406 174.901 198.293 174.656 198.102 174.479C197.911 174.302 197.659 174.207 197.4 174.215C197.141 174.237 196.9 174.358 196.728 174.553C196.555 174.749 196.464 175.003 196.473 175.264C196.489 175.525 196.605 175.769 196.797 175.945C196.989 176.121 197.242 176.214 197.501 176.205C197.63 176.198 197.757 176.165 197.874 176.108C197.99 176.051 198.094 175.971 198.18 175.873C198.266 175.775 198.331 175.661 198.372 175.538C198.414 175.414 198.43 175.284 198.421 175.154L198.419 175.162ZM91.785 194.278C92.0427 194.275 92.2895 194.174 92.4747 193.993C92.6599 193.813 92.7693 193.568 92.7804 193.309C92.7809 193.05 92.6793 192.8 92.4976 192.616C92.3159 192.431 92.069 192.327 91.8109 192.325C91.6832 192.321 91.556 192.342 91.4366 192.388C91.3172 192.434 91.2082 192.503 91.1159 192.592C91.0235 192.681 90.9498 192.787 90.8989 192.905C90.8481 193.023 90.8212 193.15 90.8199 193.279C90.8263 193.535 90.9301 193.78 91.11 193.962C91.2898 194.144 91.5321 194.25 91.7872 194.258L91.785 194.278ZM170.615 179.196C170.622 179.067 170.604 178.939 170.56 178.817C170.517 178.696 170.45 178.584 170.363 178.489C170.277 178.395 170.172 178.318 170.055 178.264C169.939 178.211 169.813 178.181 169.685 178.177C169.557 178.172 169.43 178.191 169.31 178.235C169.189 178.278 169.079 178.346 168.985 178.432C168.89 178.519 168.814 178.623 168.76 178.74C168.706 178.856 168.675 178.982 168.669 179.11C168.663 179.239 168.682 179.367 168.726 179.488C168.769 179.609 168.836 179.72 168.922 179.815C169.008 179.909 169.112 179.986 169.228 180.041C169.343 180.095 169.469 180.127 169.596 180.132C169.725 180.14 169.853 180.122 169.975 180.079C170.096 180.036 170.208 179.969 170.303 179.881C170.398 179.794 170.475 179.688 170.528 179.571C170.582 179.453 170.612 179.326 170.615 179.196ZM183.138 193.316C183.144 193.188 183.125 193.06 183.081 192.94C183.037 192.82 182.969 192.71 182.882 192.616C182.795 192.523 182.69 192.449 182.573 192.397C182.456 192.345 182.331 192.318 182.203 192.316C182.076 192.304 181.947 192.319 181.826 192.36C181.705 192.401 181.593 192.467 181.499 192.554C181.405 192.642 181.331 192.748 181.281 192.867C181.23 192.985 181.206 193.113 181.208 193.242C181.201 193.37 181.219 193.498 181.262 193.618C181.305 193.739 181.371 193.85 181.456 193.945C181.542 194.04 181.645 194.116 181.761 194.17C181.876 194.225 182.001 194.255 182.128 194.261C182.385 194.263 182.634 194.165 182.822 193.988C183.01 193.811 183.123 193.568 183.138 193.309V193.316ZM104.308 180.128C104.435 180.134 104.563 180.114 104.682 180.068C104.801 180.022 104.909 179.951 104.999 179.861C105.09 179.771 105.161 179.662 105.208 179.543C105.254 179.424 105.276 179.296 105.271 179.168C105.28 179.04 105.261 178.912 105.218 178.792C105.174 178.671 105.106 178.562 105.017 178.469C104.929 178.377 104.822 178.305 104.704 178.257C104.586 178.209 104.459 178.186 104.332 178.19C104.205 178.189 104.08 178.212 103.962 178.26C103.845 178.307 103.738 178.377 103.647 178.466C103.557 178.555 103.485 178.66 103.435 178.777C103.385 178.894 103.358 179.02 103.357 179.147C103.355 179.274 103.379 179.401 103.426 179.519C103.473 179.637 103.542 179.745 103.631 179.836C103.719 179.927 103.824 180 103.94 180.05C104.057 180.1 104.182 180.126 104.308 180.128Z" fill="#F85C27"/>
<path d="M49.3773 90.1883C48.8626 86.0473 48.6375 81.875 48.7037 77.7022C48.7317 75.3128 48.7037 72.9233 48.8181 70.5338C48.9649 67.3168 49.2197 64.1062 49.4227 60.8913C49.617 57.8002 49.7573 54.7025 50.0121 51.6158C50.228 48.9244 50.5821 46.2438 50.8758 43.5589C51.0355 42.097 51.1435 40.6286 51.3594 39.1775C51.6898 36.9771 52.087 34.7896 52.467 32.5978C52.6355 31.6181 52.8233 30.6428 53.0155 29.6675C53.0781 29.3612 53.1817 29.0614 53.3026 28.627C65.8969 36.3667 76.1032 46.2047 82.4187 59.7769C68.8463 67.1625 58.0053 77.3047 49.3773 90.1883Z" fill="#F85C27"/>
<path d="M224.612 90.2121C216.027 77.348 205.19 67.2211 191.633 59.8246C191.967 59.0491 192.281 58.2019 192.682 57.4112C197.504 48.1271 204.231 40.4677 212.523 34.203C214.865 32.4326 217.34 30.8382 219.758 29.1677C220.013 28.9918 220.302 28.8614 220.706 28.6377C221.068 30.4168 221.485 32.0959 221.742 33.7989C222.206 36.864 222.606 39.9377 222.971 43.0158C223.374 46.3675 223.787 49.7215 224.065 53.0863C224.346 56.488 224.424 59.9049 224.674 63.3088C225.093 69.024 225.395 74.7457 225.257 80.4696C225.188 83.2935 224.875 86.0978 224.674 88.9109C224.646 89.2932 224.637 89.6734 224.612 90.2121Z" fill="#F85C27"/>
<path d="M195.662 159.515C195.217 159.913 194.768 160.304 194.329 160.708C190.08 164.644 185.028 167.007 179.472 168.385C174.921 169.514 170.287 170.151 165.654 170.774L158.464 171.745C157.488 168.406 157.456 164.987 157.57 161.549C157.654 158.034 158.209 154.547 159.222 151.183C163.676 136.846 173.256 128.113 187.839 124.946C192.213 123.997 196.64 123.921 201.226 124.351C201.828 126.523 202.478 128.696 203.033 130.881C203.716 133.469 204.055 136.138 204.039 138.816C203.974 142.977 203.071 147.082 201.385 150.883C199.969 154.061 198.035 156.979 195.662 159.515ZM161.692 169.33C162.286 169.33 162.681 169.364 163.067 169.33C164.399 169.18 165.734 169.041 167.057 168.832C169.899 168.398 172.744 167.946 175.573 167.42C180.39 166.523 185.032 165.107 189.219 162.446C191.827 160.771 194.147 158.682 196.089 156.259C197.743 154.219 199.076 151.936 200.04 149.488C201.326 146.358 202.062 143.027 202.215 139.644C202.272 137.455 202.102 135.267 201.707 133.114C201.429 131.48 201.016 129.871 200.656 128.222C200.224 128.174 199.926 128.116 199.619 128.111C196.456 128.022 193.292 128.245 190.173 128.778C185.759 129.562 181.529 131.169 177.702 133.516C175.424 134.913 173.479 136.72 171.589 138.614C168.644 141.566 166.502 145.042 164.896 148.839C162.69 154.055 161.596 159.679 161.683 165.348C161.709 166.61 161.694 167.878 161.694 169.33H161.692ZM159.662 169.653L159.906 169.671C159.94 169.523 159.962 169.372 159.973 169.221C159.973 167.151 159.949 165.078 160.005 163.008C160.127 159.536 160.696 156.095 161.7 152.771C164.147 144.403 168.674 137.493 175.964 132.616C183.089 127.859 191.011 126.054 199.479 126.354C199.646 126.338 199.81 126.3 199.967 126.241C199.91 126.155 199.834 126.083 199.745 126.032C199.656 125.981 199.556 125.952 199.453 125.948C196.091 125.694 192.711 125.839 189.383 126.382C181.066 127.772 173.992 131.459 168.346 137.804C164.229 142.428 161.672 147.859 160.269 153.878C159.271 158.153 159.138 162.491 159.345 166.851C159.388 167.783 159.556 168.719 159.664 169.653H159.662Z" fill="#060403"/>
<path d="M115.462 171.747C109.153 170.8 102.79 170.212 96.5417 168.867C91.2993 167.737 86.3225 165.98 82.002 162.67C81.0261 161.922 80.1214 161.08 79.1779 160.28C78.8799 160.032 78.5603 159.811 78.2516 159.579C78.1162 159.346 77.9647 159.123 77.7982 158.912C73.413 154.061 70.958 148.344 70.1418 141.86C69.6193 137.706 70.2131 133.672 71.2214 129.671C71.5993 128.166 72.0592 126.68 72.4932 125.188C72.5795 124.888 72.7091 124.603 72.8149 124.343C80.659 123.597 88.1901 124.516 95.27 127.942C105.886 133.081 112.383 141.616 115.231 153.036C116.527 158.279 116.743 163.601 116.125 168.956C116.017 169.905 115.689 170.82 115.462 171.747ZM73.441 127.998C73.2933 128.323 73.1691 128.659 73.0696 129.002C72.7263 130.833 72.4219 132.675 72.0613 134.5C71.5453 137.022 71.5798 139.574 71.921 142.081C72.4162 145.796 73.613 149.382 75.4469 152.645C77.2103 155.767 79.5494 158.522 82.3389 160.762C86.0094 163.749 90.291 165.524 94.823 166.651C100.035 167.955 105.379 168.524 110.682 169.308C111.202 169.386 111.749 169.284 112.282 169.265C112.323 168.965 112.362 168.811 112.366 168.654C112.455 165.155 112.232 161.654 111.701 158.195C111.185 154.769 110.208 151.43 108.797 148.27C106.685 143.563 103.76 139.466 99.7804 136.127C96.0257 132.977 91.7722 130.872 87.1127 129.545C84.8305 128.893 82.5159 128.396 80.13 128.311C77.9212 128.235 75.7146 128.098 73.441 127.998ZM114.046 169.601L114.329 169.566C114.409 168.543 114.467 167.518 114.575 166.499C115.007 162.326 114.62 158.201 113.724 154.135C111.729 145.077 107.139 137.663 99.4997 132.354C91.8607 127.045 83.2522 125.224 74.0585 126.004C73.9959 126.004 73.9419 126.15 73.7606 126.391H77.8025C80.8189 126.422 83.8191 126.84 86.7306 127.634C97.1484 130.368 104.895 136.477 109.719 146.213C112.563 151.952 113.854 158.08 114.037 164.46C114.091 166.173 114.046 167.887 114.046 169.601Z" fill="#050403"/>
<path d="M114.832 129.069C108.305 128.531 102.175 127.477 96.8871 123.784C91.9535 120.341 88.8983 115.61 88.4254 109.471C88.1836 106.313 89.0904 103.439 91.5454 101.282C93.8362 99.2683 96.6172 98.7166 99.5558 98.9773C105.489 99.503 110.416 102.299 114.849 106.094C118.435 109.165 121.305 112.793 122.909 117.318C123.512 119.018 123.889 120.743 123.652 122.59C123.268 125.596 121.568 127.447 118.796 128.316C117.442 128.73 116.004 128.854 114.832 129.069ZM113.968 127.114C114.763 127.114 115.557 127.136 116.343 127.114C116.739 127.078 117.131 127.006 117.513 126.897C120.448 126.222 121.989 124.251 121.927 121.236C121.914 120.718 121.858 120.201 121.758 119.692C121.449 118.08 120.859 116.536 120.016 115.13C116.06 108.481 110.364 103.991 103.08 101.564C100.845 100.819 98.5237 100.546 96.153 100.995C92.9143 101.608 90.6493 103.897 90.1786 107.143C89.9255 108.888 90.059 110.669 90.5695 112.356C91.8649 116.661 94.3976 120.061 98.0682 122.55C102.87 125.807 108.333 126.836 113.977 127.121L113.968 127.114Z" fill="#0C0706"/>
<path d="M159.403 129.047C158.265 128.887 157.108 128.83 155.996 128.55C151.648 127.501 149.534 124.184 150.382 119.748C151 116.505 152.466 113.635 154.467 111.059C158.628 105.698 163.816 101.755 170.341 99.7634C172.988 98.951 175.681 98.6295 178.44 99.2812C182.543 100.252 185.11 103.452 185.494 107.736C185.775 110.861 184.957 113.761 183.519 116.49C181.012 121.245 177.182 124.527 172.2 126.421C168.511 127.802 164.649 128.659 160.725 128.967C160.293 129.004 159.861 128.967 159.416 128.967L159.403 129.047ZM160.029 127.212C164.393 127.071 168.616 126.204 172.608 124.425C176.927 122.502 180.209 119.405 182.307 115.11C183.409 112.856 184.009 110.483 183.849 107.942C183.616 104.236 181.245 101.606 177.624 100.978C175.58 100.637 173.484 100.786 171.507 101.412C163.803 103.751 157.897 108.413 153.787 115.399C152.865 116.944 152.272 118.664 152.047 120.452C151.693 123.402 152.826 125.665 155.683 126.673C157.091 127.175 158.55 127.216 160.036 127.212H160.029Z" fill="#0B0705"/>
<path d="M84.5757 198.961C83.2176 197.56 81.7277 198.24 80.3783 198.383C79.8126 197.447 79.8882 197.08 80.6503 196.685C82.0991 195.938 84.6707 196.431 85.7286 197.658C85.9474 197.918 86.1125 198.219 86.2141 198.544C86.3156 198.869 86.3518 199.211 86.3203 199.55C86.2923 200.187 86.2296 200.822 86.1324 201.453C85.2838 206.588 86.7801 211.011 90.2218 214.79C93.1928 218.049 96.926 220.097 101.074 221.442C112.085 225.009 125.636 222.776 134.726 215.898C135.169 215.564 135.59 215.207 136.052 214.843V213.129C134.692 212.675 133.333 212.26 131.999 211.769C125.88 209.556 120.441 205.774 116.22 200.797C114.943 199.317 113.893 197.652 113.107 195.859C110.287 189.416 114.506 183.953 120.016 183.26C122.846 182.908 125.692 182.609 128.54 182.472C132.306 182.305 136.08 182.292 139.85 182.292C143.978 182.292 148.104 182.439 152.204 182.982C153.107 183.102 154.007 183.262 154.897 183.462C159.966 184.598 162.797 189.434 161.331 194.43C160.634 196.819 159.355 198.866 157.766 200.729C152.746 206.629 146.474 210.559 139.081 212.718C138.703 212.829 138.332 212.951 137.913 213.081V214.988C139.375 215.972 140.893 217.136 142.538 218.073C149.879 222.261 157.803 223.72 166.17 222.852C171.136 222.33 175.784 220.849 179.96 218.031C182.642 216.222 184.846 213.958 186.353 211.059C187.934 208.017 188.37 204.789 187.832 201.412C187.727 200.745 187.688 200.067 187.647 199.391C187.584 198.375 188.038 197.617 188.884 197.098C190.253 196.255 191.712 196.068 193.202 196.663C194.085 197.015 194.152 197.447 193.507 198.39C192.161 198.24 190.667 197.549 189.329 198.987C189.415 199.895 189.488 200.921 189.616 201.937C190.246 206.905 188.802 211.258 185.703 215.082C182.655 218.844 178.663 221.233 174.161 222.806C168.588 224.761 162.86 225.228 157.017 224.544C151.349 223.892 146.018 222.189 141.117 219.224C139.694 218.355 138.353 217.358 136.926 216.4C136.842 216.427 136.763 216.467 136.691 216.517C131.664 220.592 125.895 223.008 119.588 224.164C113.111 225.348 106.703 225.087 100.413 223.043C96.1206 221.646 92.2687 219.491 89.1401 216.159C86.6247 213.481 84.9514 210.361 84.3641 206.697C84.0575 204.789 84.1481 202.878 84.3835 200.968C84.4893 200.258 84.526 199.55 84.5757 198.961ZM136.903 184.19C135.197 184.19 133.489 184.16 131.781 184.19C130.073 184.22 128.307 184.394 126.569 184.407C124.279 184.457 121.998 184.698 119.748 185.128C115.646 185.85 112.787 190.031 114.521 194.56C115.574 197.313 117.369 199.509 119.338 201.585C120.342 202.643 121.514 203.54 122.65 204.472C126.364 207.498 130.514 209.655 135.186 210.733C135.873 210.889 136.605 211.056 137.289 210.982C138.346 210.848 139.39 210.619 140.407 210.298C142.76 209.599 145.022 208.621 147.146 207.385C150.51 205.423 153.533 202.921 156.095 199.978C157.219 198.643 158.185 197.181 158.971 195.62C159.804 194.12 160.109 192.38 159.835 190.683C159.588 189.324 158.939 188.072 157.972 187.09C157.005 186.109 155.766 185.445 154.417 185.185C151.116 184.501 147.761 184.353 144.41 184.229C141.899 184.127 139.405 184.201 136.903 184.201V184.19Z" fill="#090707"/>
<path d="M76.5157 174.189C77.2024 174.363 77.5629 174.732 77.4571 175.399C77.3794 175.888 77.0253 176.146 76.5395 176.187C76.2993 176.2 76.0631 176.122 75.8768 175.969C75.6905 175.816 75.5673 175.599 75.5312 175.36C75.4491 174.671 75.8464 174.343 76.5157 174.189Z" fill="#A9433E"/>
<path d="M198.421 175.153C198.429 175.282 198.412 175.412 198.37 175.534C198.329 175.657 198.263 175.77 198.178 175.867C198.093 175.963 197.989 176.042 197.873 176.099C197.758 176.155 197.632 176.188 197.503 176.196C197.244 176.205 196.991 176.112 196.8 175.936C196.608 175.76 196.491 175.516 196.476 175.255C196.467 174.994 196.558 174.739 196.73 174.544C196.903 174.349 197.143 174.228 197.402 174.206C197.661 174.198 197.914 174.292 198.104 174.47C198.295 174.647 198.409 174.892 198.421 175.153Z" fill="#AA4641"/>
<path d="M91.7874 194.258C91.5294 194.249 91.2849 194.14 91.105 193.954C90.9251 193.768 90.8238 193.519 90.8223 193.259C90.8236 193.13 90.8505 193.003 90.9013 192.885C90.9522 192.768 91.0259 192.661 91.1183 192.572C91.2106 192.483 91.3196 192.414 91.439 192.368C91.5584 192.322 91.6856 192.301 91.8133 192.305C92.0714 192.307 92.3183 192.411 92.5 192.596C92.6817 192.78 92.7833 193.03 92.7828 193.289C92.7717 193.548 92.6623 193.793 92.4771 193.973C92.2919 194.154 92.0451 194.256 91.7874 194.258Z" fill="#A7413D"/>
<path d="M170.615 179.196C170.611 179.325 170.58 179.451 170.526 179.568C170.472 179.684 170.395 179.789 170.3 179.876C170.205 179.962 170.094 180.028 169.973 180.071C169.852 180.114 169.724 180.131 169.596 180.124C169.469 180.118 169.344 180.087 169.228 180.032C169.112 179.978 169.008 179.901 168.922 179.806C168.836 179.711 168.769 179.6 168.726 179.479C168.683 179.358 168.663 179.23 168.669 179.101C168.675 178.973 168.706 178.847 168.76 178.731C168.814 178.614 168.891 178.51 168.985 178.423C169.079 178.337 169.19 178.27 169.31 178.226C169.43 178.182 169.557 178.163 169.685 178.168C169.814 178.172 169.941 178.202 170.058 178.256C170.175 178.31 170.28 178.388 170.367 178.484C170.454 178.58 170.52 178.692 170.563 178.814C170.606 178.937 170.624 179.067 170.615 179.196Z" fill="#A9443F"/>
<path d="M183.139 193.309C183.122 193.566 183.008 193.808 182.82 193.984C182.632 194.159 182.385 194.256 182.128 194.254C182.001 194.248 181.876 194.218 181.761 194.164C181.646 194.109 181.542 194.033 181.457 193.938C181.371 193.843 181.305 193.732 181.262 193.611C181.22 193.491 181.202 193.363 181.208 193.235C181.206 193.106 181.231 192.978 181.281 192.86C181.331 192.741 181.406 192.635 181.5 192.547C181.594 192.46 181.705 192.394 181.826 192.353C181.948 192.312 182.076 192.297 182.204 192.31C182.331 192.311 182.457 192.339 182.573 192.39C182.69 192.442 182.795 192.516 182.882 192.609C182.969 192.703 183.037 192.813 183.081 192.933C183.125 193.053 183.145 193.181 183.139 193.309Z" fill="#A8423D"/>
<path d="M104.304 180.121C104.178 180.12 104.053 180.093 103.937 180.043C103.82 179.993 103.715 179.92 103.627 179.829C103.538 179.738 103.469 179.63 103.422 179.512C103.375 179.394 103.352 179.268 103.353 179.14C103.355 179.013 103.381 178.888 103.431 178.771C103.481 178.654 103.553 178.548 103.644 178.459C103.734 178.37 103.841 178.3 103.959 178.253C104.076 178.206 104.201 178.182 104.328 178.184C104.455 178.179 104.582 178.202 104.7 178.25C104.818 178.298 104.925 178.371 105.013 178.463C105.102 178.555 105.17 178.665 105.214 178.785C105.258 178.905 105.276 179.033 105.267 179.161C105.272 179.289 105.251 179.417 105.204 179.536C105.157 179.656 105.086 179.764 104.996 179.854C104.905 179.944 104.797 180.015 104.678 180.061C104.559 180.107 104.432 180.127 104.304 180.121Z" fill="#A7403C"/>
<path d="M161.694 169.33C161.694 167.879 161.709 166.61 161.694 165.339C161.606 159.671 162.701 154.047 164.907 148.83C166.507 145.033 168.648 141.558 171.6 138.606C173.489 136.711 175.435 134.913 177.712 133.507C181.54 131.16 185.77 129.554 190.184 128.77C193.303 128.236 196.467 128.013 199.63 128.103C199.937 128.103 200.243 128.166 200.666 128.214C201.027 129.862 201.439 131.472 201.718 133.105C202.113 135.258 202.283 137.447 202.225 139.635C202.072 143.019 201.337 146.35 200.051 149.48C199.087 151.927 197.754 154.211 196.1 156.251C194.158 158.674 191.837 160.763 189.229 162.437C185.043 165.098 180.401 166.515 175.584 167.412C172.755 167.937 169.909 168.378 167.068 168.824C165.744 169.041 164.41 169.171 163.078 169.321C162.683 169.371 162.288 169.33 161.694 169.33Z" fill="#1F1F1F"/>
<path d="M159.664 169.653C159.556 168.717 159.392 167.783 159.347 166.844C159.131 162.485 159.273 158.155 160.271 153.872C161.674 147.859 164.231 142.428 168.348 137.797C173.994 131.452 181.068 127.766 189.385 126.375C192.713 125.833 196.093 125.687 199.455 125.941C199.558 125.945 199.658 125.974 199.747 126.025C199.836 126.076 199.912 126.148 199.969 126.234C199.812 126.293 199.648 126.331 199.481 126.347C191.013 126.047 183.071 127.853 175.966 132.61C168.676 137.487 164.149 144.396 161.702 152.764C160.698 156.088 160.129 159.53 160.007 163.002C159.951 165.072 159.986 167.144 159.975 169.214C159.964 169.366 159.942 169.516 159.908 169.664L159.664 169.653Z" fill="#6C605A"/>
<path d="M73.441 127.999C75.7146 128.107 77.9212 128.235 80.1343 128.314C82.5202 128.398 84.8348 128.898 87.117 129.547C91.7765 130.875 96.03 132.979 99.7847 136.129C103.764 139.468 106.694 143.565 108.801 148.272C110.212 151.433 111.189 154.772 111.705 158.197C112.236 161.657 112.459 165.157 112.37 168.656C112.37 168.813 112.327 168.967 112.286 169.267C111.753 169.286 111.207 169.388 110.686 169.31C105.383 168.526 100.039 167.95 94.8273 166.654C90.2931 165.526 86.0137 163.751 82.3431 160.765C79.5519 158.524 77.2113 155.768 75.4468 152.645C73.6127 149.381 72.4159 145.795 71.921 142.079C71.5798 139.572 71.5453 137.02 72.0613 134.498C72.4327 132.673 72.7263 130.831 73.0696 129C73.1692 128.658 73.2933 128.323 73.441 127.999Z" fill="#1F1F1F"/>
<path d="M114.046 169.601C114.046 167.887 114.089 166.173 114.046 164.459C113.86 158.079 112.569 151.951 109.728 146.212C104.904 136.476 97.157 130.368 86.7392 127.633C83.8277 126.839 80.8275 126.422 77.8111 126.391H73.7627C73.9441 126.15 73.998 126.011 74.0607 126.004C83.2543 125.224 91.8412 127.027 99.5019 132.354C107.162 137.68 111.731 145.076 113.726 154.135C114.622 158.201 115.022 162.326 114.577 166.499C114.469 167.518 114.411 168.543 114.331 169.566L114.046 169.601Z" fill="#6B605A"/>
<path d="M113.977 127.121C108.333 126.836 102.87 125.818 98.077 122.559C94.4065 120.063 91.8652 116.67 90.5848 112.369C90.0743 110.682 89.9409 108.901 90.194 107.156C90.6647 103.911 92.921 101.621 96.1683 101.008C98.5434 100.559 100.86 100.832 103.095 101.578C110.38 104.004 116.076 108.494 120.031 115.143C120.874 116.549 121.464 118.093 121.774 119.705C121.873 120.214 121.929 120.731 121.942 121.249C122.005 124.264 120.463 126.235 117.529 126.91C117.146 127.019 116.754 127.091 116.358 127.127C115.557 127.143 114.771 127.121 113.977 127.121Z" fill="#F85C27"/>
<path d="M160.036 127.212C158.557 127.212 157.097 127.175 155.683 126.673C152.826 125.661 151.693 123.402 152.047 120.452C152.273 118.663 152.868 116.94 153.793 115.395C157.889 108.418 163.795 103.756 171.514 101.408C173.49 100.782 175.586 100.633 177.63 100.974C181.251 101.601 183.622 104.232 183.855 107.938C184.015 110.479 183.423 112.851 182.314 115.106C180.215 119.401 176.935 122.492 172.615 124.421C168.616 126.204 164.393 127.071 160.036 127.212Z" fill="#F85C27"/>
<path d="M136.903 184.201C139.405 184.201 141.907 184.127 144.406 184.218C147.757 184.342 151.112 184.489 154.413 185.174C155.762 185.434 157.001 186.098 157.968 187.079C158.934 188.06 159.584 189.313 159.831 190.672C160.105 192.368 159.8 194.109 158.967 195.609C158.18 197.17 157.215 198.632 156.091 199.967C153.529 202.91 150.506 205.412 147.141 207.374C145.019 208.618 142.757 209.604 140.403 210.311C139.386 210.632 138.342 210.861 137.285 210.995C136.6 211.069 135.868 210.902 135.182 210.745C130.509 209.659 126.359 207.511 122.646 204.485C121.51 203.562 120.338 202.656 119.334 201.598C117.364 199.521 115.57 197.325 114.517 194.573C112.789 190.044 115.641 185.862 119.744 185.141C121.994 184.711 124.275 184.47 126.565 184.42C128.292 184.42 130.039 184.246 131.777 184.203C133.515 184.159 135.193 184.203 136.898 184.203L136.903 184.201Z" fill="#1F1F1F"/>
</g>
<defs>
<clipPath id="clip0_85_380">
<rect width="273" height="318" fill="white"/>
</clipPath>
</defs>
</svg>
