<svg width="273" height="308" viewBox="0 0 273 308" fill="none" xmlns="http://www.w3.org/2000/svg">
<g clip-path="url(#clip0_84_23)">
<path d="M136.501 277.656C211.113 277.656 271.599 216.804 271.599 141.739C271.599 66.674 211.113 5.82178 136.501 5.82178C61.8886 5.82178 1.40332 66.674 1.40332 141.739C1.40332 216.804 61.8886 277.656 136.501 277.656Z" fill="white" stroke="black" stroke-width="13" stroke-miterlimit="10"/>
<path d="M223.599 237.874H49.4034C47.0232 237.874 45.0938 239.815 45.0938 242.209V303.664C45.0938 306.059 47.0232 308 49.4034 308H223.599C225.979 308 227.908 306.059 227.908 303.664V242.209C227.908 239.815 225.979 237.874 223.599 237.874Z" fill="black"/>
<path d="M72.3746 289.655H56.777C55.8227 289.655 55.7816 289.614 55.7816 288.652C55.7816 284.412 55.7816 280.171 55.7816 275.929C55.7816 275.06 55.8442 274.999 56.6863 274.997H67.7282C68.5573 274.997 68.6113 275.054 68.6372 275.866C68.6609 276.598 68.7602 276.707 69.5008 276.709C71.6269 276.709 73.7529 276.709 75.8789 276.709C76.5807 276.709 76.6778 276.602 76.6843 275.888C76.6843 275.223 76.6843 274.556 76.6843 273.891C76.6843 273.47 76.4943 273.257 76.0711 273.259C75.8379 273.259 75.6069 273.259 75.3737 273.259H56.98H56.3322C55.9522 273.259 55.7795 273.057 55.7795 272.686C55.7795 272.525 55.7795 272.362 55.7795 272.201C55.7795 262.933 55.7795 253.659 55.7795 244.379C55.7795 244.199 55.7795 244.019 55.7795 243.841C55.772 243.768 55.7807 243.695 55.805 243.626C55.8292 243.558 55.8685 243.495 55.9198 243.444C55.9712 243.392 56.0333 243.353 56.1017 243.329C56.17 243.305 56.2429 243.296 56.3149 243.304C56.492 243.304 56.6712 243.304 56.8504 243.304H87.9421C88.0673 243.304 88.1925 243.304 88.3178 243.304C88.7863 243.28 89.0022 243.493 89.0022 243.975C89.0022 248.415 89.0022 252.855 89.0022 257.293C89.0022 257.78 88.7863 257.962 88.3134 257.962C84.6688 257.962 81.0242 257.962 77.3795 257.962C76.8808 257.962 76.6821 257.745 76.6735 257.252C76.6519 256.246 76.6282 256.238 75.6306 256.235C73.5938 256.235 71.5578 256.235 69.5224 256.235C68.7559 256.235 68.6458 256.348 68.6393 257.104C68.6393 257.949 68.6393 258.794 68.6393 259.637C68.6393 260.106 68.8552 260.337 69.3195 260.332C69.8376 260.332 70.3558 260.332 70.874 260.332H87.9701C88.9633 260.332 89.0022 260.369 89.0022 261.358V288.641C89.0022 289.627 88.9655 289.662 87.968 289.662L72.3746 289.655Z" fill="white"/>
<path d="M92.977 266.476V244.536C92.977 244.304 92.977 244.069 92.977 243.837C92.9691 243.764 92.9775 243.691 93.0015 243.622C93.0256 243.554 93.0646 243.491 93.1158 243.44C93.167 243.388 93.229 243.349 93.2973 243.325C93.3655 243.301 93.4383 243.292 93.5103 243.3C93.7068 243.3 93.9033 243.3 94.0997 243.3H125.081C125.207 243.3 125.332 243.3 125.455 243.3C126.077 243.318 126.176 243.415 126.195 244.021C126.195 244.182 126.195 244.343 126.195 244.506C126.195 259.151 126.195 273.797 126.195 288.444C126.195 289.665 126.195 289.665 124.986 289.665H114.91C113.897 289.665 113.871 289.636 113.871 288.596C113.871 284.75 113.871 280.904 113.871 277.059C113.871 276.138 113.813 276.079 112.899 276.079H106.899C105.997 276.079 105.938 276.14 105.936 277.07C105.936 280.934 105.936 284.797 105.936 288.661C105.936 289.621 105.893 289.665 104.939 289.665H94.0069C93.0094 289.665 92.977 289.634 92.977 288.644V266.476ZM105.932 259.331C105.932 260.535 105.932 261.738 105.932 262.939C105.932 263.424 106.105 263.674 106.618 263.672C108.795 263.661 110.971 263.672 113.148 263.672C113.729 263.672 113.856 263.524 113.865 262.916C113.875 261.999 113.865 261.084 113.865 260.17C113.865 258.734 113.854 257.298 113.865 255.862C113.865 255.374 113.649 255.124 113.184 255.087C113.025 255.074 112.865 255.054 112.703 255.054C110.706 255.054 108.709 255.054 106.709 255.054C106.038 255.054 105.934 255.161 105.93 255.841C105.932 256.998 105.938 258.165 105.938 259.331H105.932Z" fill="white"/>
<path d="M183.769 266.426V244.534C183.769 244.301 183.769 244.067 183.769 243.834C183.762 243.762 183.77 243.689 183.795 243.62C183.819 243.551 183.858 243.489 183.91 243.437C183.961 243.386 184.023 243.347 184.091 243.323C184.16 243.298 184.233 243.29 184.305 243.298C184.501 243.298 184.698 243.298 184.894 243.298C188.414 243.298 191.933 243.328 195.452 243.274C196.249 243.274 196.748 243.621 197.253 244.106C197.797 244.642 198.3 245.222 198.838 245.763C199.866 246.793 200.911 247.807 201.938 248.835C202.429 249.326 202.906 249.827 203.37 250.338C203.48 250.483 203.637 250.585 203.814 250.624C203.991 250.664 204.176 250.64 204.337 250.555C204.519 250.455 204.642 250.09 204.644 249.843C204.67 247.957 204.657 246.07 204.661 244.182C204.661 243.391 204.745 243.313 205.525 243.313H216.137C216.91 243.313 217.001 243.398 217.001 244.182C217.001 259.047 217.001 273.911 217.001 288.774C217.001 289.595 216.927 289.669 216.111 289.671H205.594C204.73 289.671 204.665 289.606 204.665 288.704C204.665 282.574 204.644 276.446 204.689 270.316C204.713 269.924 204.65 269.531 204.505 269.166C204.36 268.8 204.136 268.472 203.849 268.205C202.47 266.871 201.098 265.524 199.732 264.18C199.099 263.558 198.462 262.939 197.864 262.288C197.592 261.992 197.262 261.768 196.942 261.955C196.746 262.07 196.638 262.492 196.638 262.776C196.62 270.631 196.616 278.485 196.625 286.339C196.625 287.208 196.625 288.076 196.625 288.928C196.625 289.549 196.51 289.666 195.906 289.666C192.101 289.666 188.296 289.666 184.49 289.666C183.843 289.666 183.774 289.554 183.774 288.765C183.774 282.132 183.774 275.5 183.774 268.867L183.769 266.426Z" fill="white"/>
<path d="M130.274 266.462V244.627C130.274 244.41 130.285 244.193 130.274 243.975C130.255 243.506 130.458 243.285 130.939 243.285C134.798 243.285 138.656 243.285 142.514 243.3C142.74 243.313 142.955 243.404 143.121 243.558C144.192 244.597 145.25 245.649 146.295 246.715C147.159 247.584 147.981 248.492 148.836 249.369C149.184 249.75 149.565 250.099 149.974 250.412C150.09 250.483 150.219 250.531 150.354 250.552C150.489 250.572 150.626 250.565 150.758 250.531C150.907 250.483 151.05 250.14 151.052 249.927C151.075 248.022 151.067 246.117 151.069 244.212C151.069 243.359 151.14 243.287 151.982 243.287H162.484C163.324 243.287 163.391 243.359 163.391 244.219C163.391 259.042 163.391 273.867 163.391 288.693C163.391 289.588 163.331 289.651 162.456 289.651H152.008C151.132 289.651 151.069 289.588 151.069 288.695C151.069 282.587 151.034 276.477 151.099 270.368C151.112 269.189 150.667 268.428 149.86 267.705C148.925 266.862 148.04 265.967 147.148 265.07C146.166 264.09 145.218 263.078 144.214 262.122C144.032 261.949 143.659 261.905 143.385 261.942C143.283 261.942 143.182 262.311 143.145 262.524C143.119 262.774 143.115 263.025 143.132 263.276V288.128C143.132 288.326 143.132 288.524 143.132 288.721C143.132 289.59 143.065 289.651 142.223 289.651H131.185C130.345 289.651 130.276 289.579 130.276 288.721C130.275 281.303 130.274 273.883 130.274 266.462Z" fill="white"/>
<path d="M180.332 266.528V288.418C180.332 288.65 180.332 288.885 180.332 289.117C180.338 289.189 180.329 289.262 180.304 289.331C180.279 289.399 180.239 289.461 180.187 289.511C180.136 289.562 180.073 289.601 180.005 289.624C179.937 289.648 179.864 289.655 179.792 289.647C179.596 289.647 179.399 289.647 179.203 289.647H168.431C167.545 289.647 167.485 289.586 167.485 288.702C167.485 273.874 167.485 259.048 167.485 244.223C167.485 243.344 167.545 243.283 168.435 243.283H179.367C180.289 243.283 180.34 243.335 180.34 244.256L180.332 266.528Z" fill="white"/>
<path d="M113.344 297.606C113.344 296.222 113.344 294.839 113.344 293.455C113.344 292.803 113.446 292.693 114.085 292.69C116.479 292.69 118.873 292.69 121.266 292.69C121.914 292.69 122.007 292.799 122.013 293.453C122.013 294.322 122.013 295.191 122.013 296.042C122.052 296.509 121.927 296.976 121.661 297.361C121.551 297.513 121.648 297.847 121.7 298.088C121.78 298.445 121.979 298.79 121.996 299.146C122.037 300.061 121.996 300.98 122.013 301.894C122.013 302.403 121.797 302.6 121.301 302.6C118.889 302.6 116.477 302.6 114.066 302.6C113.45 302.6 113.342 302.492 113.338 301.875C113.338 300.448 113.344 299.027 113.344 297.606ZM117.73 296.446C118.14 296.446 118.548 296.446 118.956 296.446C119.273 296.446 119.52 296.325 119.524 295.953C119.533 295.876 119.524 295.799 119.499 295.726C119.473 295.653 119.431 295.587 119.376 295.532C119.322 295.478 119.255 295.437 119.183 295.413C119.11 295.388 119.032 295.38 118.956 295.391C118.159 295.38 117.36 295.391 116.562 295.391C116.422 295.391 116.288 295.446 116.189 295.546C116.09 295.645 116.035 295.78 116.035 295.921C116.035 296.061 116.09 296.196 116.189 296.295C116.288 296.395 116.422 296.451 116.562 296.451C116.95 296.451 117.341 296.44 117.73 296.44V296.446ZM117.753 299.9C118.162 299.924 118.572 299.918 118.98 299.883C119.172 299.852 119.336 299.631 119.513 299.498C119.345 299.348 119.185 299.083 119.01 299.064C118.192 299.019 117.371 299.019 116.553 299.064C116.378 299.064 116.218 299.335 116.052 299.481C116.227 299.618 116.387 299.844 116.579 299.874C116.969 299.914 117.362 299.923 117.753 299.9Z" fill="white"/>
<path d="M94.7216 302.596C93.5254 302.596 92.3293 302.596 91.131 302.596C90.5156 302.596 90.4141 302.485 90.4033 301.87C90.4033 301.366 90.4033 300.864 90.4033 300.349C90.4033 299.698 90.5134 299.578 91.1482 299.583C91.8541 299.581 92.5583 299.654 93.2491 299.8C94.1883 300.002 95.1923 299.874 96.179 299.845C96.3086 299.845 96.5223 299.602 96.5266 299.468C96.531 299.333 96.3345 299.144 96.1834 299.083C95.9765 299.028 95.7616 299.01 95.5486 299.031C94.1019 299.031 92.6553 299.031 91.2087 299.031C90.5026 299.031 90.4055 298.931 90.4033 298.214C90.4033 296.633 90.4033 295.051 90.4033 293.47C90.4033 292.784 90.5048 292.684 91.1806 292.684C93.5557 292.684 95.9307 292.684 98.3058 292.684C98.9773 292.684 99.0701 292.786 99.0766 293.476C99.0766 294.015 99.0766 294.563 99.0766 295.093C99.0766 295.494 98.8801 295.694 98.485 295.683C97.7406 295.684 96.9979 295.611 96.2675 295.466C95.3478 295.262 94.3524 295.373 93.3916 295.405C93.2534 295.405 93.031 295.736 93.018 295.925C93.018 296.079 93.234 296.303 93.3981 296.396C93.5856 296.452 93.7833 296.466 93.9767 296.435C95.4233 296.435 96.87 296.435 98.3166 296.435C98.9643 296.435 99.0744 296.544 99.0788 297.184C99.0788 298.731 99.0788 300.277 99.0788 301.822C99.0788 302.463 98.9665 302.565 98.3166 302.569C97.1161 302.6 95.9091 302.596 94.7216 302.596Z" fill="white"/>
<path d="M75.5034 297.584C75.5034 296.237 75.5034 294.891 75.5034 293.544C75.5034 292.777 75.5855 292.69 76.3196 292.688C78.6759 292.688 81.0323 292.688 83.3886 292.688C84.0731 292.688 84.1638 292.788 84.1746 293.468C84.1746 293.844 84.1746 294.222 84.1746 294.597C84.1616 295.269 84.0666 295.366 83.38 295.371C81.8686 295.371 80.3809 295.371 78.8803 295.371C78.5932 295.371 78.293 295.371 78.2045 295.751C78.103 296.185 78.3146 296.435 78.8328 296.439C80.0463 296.455 81.2619 296.439 82.4753 296.439H83.0648C83.1409 296.429 83.2184 296.436 83.2913 296.46C83.3642 296.485 83.4306 296.526 83.4851 296.58C83.5397 296.635 83.581 296.701 83.6058 296.774C83.6306 296.847 83.6383 296.925 83.6283 297.002C83.6283 297.45 83.6283 297.899 83.6283 298.349C83.6434 298.833 83.4124 299.022 82.9417 299.018C81.6462 299.018 80.3723 299.018 79.0876 299.018C78.8923 298.998 78.6951 299.016 78.5068 299.072C78.4239 299.094 78.3506 299.143 78.2983 299.212C78.246 299.28 78.2177 299.364 78.2177 299.45C78.2177 299.536 78.246 299.62 78.2983 299.689C78.3506 299.757 78.4239 299.806 78.5068 299.828C78.6945 299.883 78.8909 299.901 79.0855 299.882C80.5148 299.882 81.942 299.882 83.3692 299.882C84.0536 299.882 84.1486 299.985 84.1594 300.66C84.1594 301.095 84.1594 301.529 84.1594 301.963C84.1594 302.354 83.991 302.574 83.5851 302.572C81.0848 302.572 78.5852 302.572 76.0864 302.572C75.6071 302.572 75.4862 302.291 75.4883 301.872C75.4883 300.436 75.4883 298.998 75.4883 297.563L75.5034 297.584Z" fill="white"/>
<path d="M198.777 297.626C198.777 296.244 198.777 294.86 198.777 293.477C198.777 292.788 198.875 292.69 199.55 292.69C201.925 292.69 204.3 292.69 206.676 292.69C207.349 292.69 207.44 292.793 207.451 293.479C207.451 293.874 207.451 294.27 207.451 294.665C207.47 295.167 207.248 295.38 206.749 295.375C205.374 295.375 203.998 295.375 202.625 295.375H202.089C201.722 295.375 201.455 295.493 201.463 295.927C201.472 296.362 201.72 296.442 202.066 296.446C202.297 296.446 202.53 296.446 202.761 296.446C203.886 296.446 205.011 296.446 206.136 296.446C206.807 296.446 206.898 296.548 206.909 297.237C206.909 297.578 206.909 297.921 206.909 298.262C206.896 298.914 206.799 299.018 206.159 299.023C204.909 299.023 203.659 299.023 202.411 299.036C202.057 299.036 201.498 298.866 201.504 299.47C201.504 300.033 202.044 299.878 202.385 299.883C203.815 299.9 205.242 299.883 206.671 299.883C207.345 299.883 207.438 299.987 207.448 300.671C207.448 301.106 207.448 301.54 207.448 301.975C207.448 302.409 207.261 302.574 206.861 302.574H199.365C198.877 302.574 198.775 302.277 198.777 301.866C198.782 300.465 198.777 299.046 198.777 297.626Z" fill="white"/>
<path d="M131.773 297.656C131.773 299.04 131.773 300.421 131.773 301.805C131.773 302.489 131.671 302.583 130.998 302.593C130.639 302.593 130.283 302.593 129.918 302.593C129.486 302.593 129.303 302.376 129.307 301.961C129.307 301.423 129.296 300.875 129.307 300.345C129.307 299.898 129.113 299.694 128.659 299.694C127.909 299.702 127.16 299.702 126.412 299.694C125.96 299.694 125.764 299.911 125.764 300.345C125.764 300.884 125.764 301.431 125.764 301.961C125.764 302.383 125.578 302.596 125.151 302.591C124.723 302.587 124.259 302.591 123.812 302.591C123.208 302.578 123.102 302.476 123.1 301.851C123.1 299.75 123.1 297.649 123.1 295.551C123.1 294.815 123.1 294.08 123.1 293.344C123.1 292.894 123.292 292.692 123.747 292.692C126.21 292.692 128.673 292.692 131.136 292.692C131.635 292.692 131.784 292.957 131.784 293.407C131.766 294.819 131.773 296.237 131.773 297.656ZM127.524 296.987C127.88 296.987 128.236 296.987 128.59 296.987C129.186 296.972 129.29 296.861 129.307 296.246C129.307 296.105 129.307 295.962 129.307 295.812C129.327 295.329 129.091 295.136 128.621 295.145C128.035 295.156 127.448 295.145 126.861 295.145C125.799 295.145 125.714 295.236 125.781 296.318C125.781 296.37 125.781 296.424 125.781 296.479C125.779 296.546 125.79 296.614 125.816 296.677C125.841 296.74 125.879 296.796 125.928 296.843C125.977 296.89 126.035 296.925 126.099 296.947C126.163 296.97 126.23 296.978 126.297 296.972C126.708 296.993 127.116 296.987 127.524 296.987Z" fill="white"/>
<path d="M208.532 297.641C208.532 296.259 208.532 294.875 208.532 293.494C208.532 292.781 208.625 292.69 209.342 292.688C211.681 292.688 214.019 292.688 216.357 292.688C217.113 292.688 217.201 292.775 217.203 293.516C217.203 294.88 217.19 296.244 217.203 297.608C217.223 297.841 217.183 298.075 217.087 298.289C216.991 298.502 216.842 298.686 216.655 298.825C216.613 298.858 216.574 298.895 216.536 298.933C215.733 299.674 215.724 299.726 216.486 300.48C216.903 300.893 217.272 301.299 217.203 301.961C217.158 302.376 217.011 302.598 216.584 302.593C216.156 302.616 215.728 302.61 215.301 302.574C215.01 302.539 214.742 302.397 214.548 302.176C213.9 301.214 213.036 300.836 211.883 300.973C211.43 301.027 211.205 301.164 211.188 301.651C211.156 302.587 211.132 302.593 210.193 302.596C209.908 302.596 209.62 302.596 209.329 302.596C208.612 302.596 208.519 302.5 208.517 301.79C208.528 300.406 208.532 299.024 208.532 297.641ZM212.971 295.382H212.812C211.048 295.382 211.207 295.234 211.203 297.013C211.203 298.41 211.203 298.41 212.619 298.408C214.036 298.405 214.878 297.454 214.735 296.018C214.697 295.61 214.519 295.388 214.088 295.386C213.721 295.379 213.347 295.382 212.971 295.382Z" fill="white"/>
<path d="M144.181 296.613C144.145 296.965 144.104 297.187 144.101 297.408C144.101 298.864 144.101 300.319 144.101 301.775C144.101 302.496 144.006 302.585 143.3 302.596C142.944 302.596 142.586 302.596 142.221 302.596C141.517 302.596 141.428 302.498 141.426 301.77C141.426 300.387 141.426 299.003 141.426 297.619C141.426 296.235 141.426 294.852 141.426 293.468C141.426 292.786 141.523 292.701 142.21 292.688C144.039 292.649 144.032 292.656 145.38 294.081C145.909 294.639 146.459 295.167 147.027 295.699C147.153 295.786 147.291 295.854 147.437 295.901C147.525 295.756 147.587 295.598 147.621 295.432C147.645 294.767 147.621 294.102 147.64 293.438C147.66 292.773 147.75 292.701 148.402 292.688C148.722 292.688 149.05 292.688 149.365 292.688C149.981 292.703 150.091 292.803 150.095 293.418C150.095 294.676 150.095 295.934 150.095 297.191C150.095 298.738 150.095 300.282 150.095 301.829C150.095 302.481 149.985 302.581 149.348 302.594C148.972 302.594 148.597 302.594 148.223 302.594C147.85 302.594 147.636 302.376 147.638 301.992C147.638 301.938 147.638 301.883 147.638 301.829C147.612 299.411 147.854 300.204 146.222 298.486C145.777 298.019 145.319 297.565 144.855 297.117C144.639 296.938 144.414 296.77 144.181 296.613Z" fill="white"/>
<path d="M108.832 297.641C108.832 299.005 108.832 300.371 108.832 301.738C108.832 302.513 108.745 302.596 107.968 302.596C106.223 302.596 106.385 302.737 106.379 300.999C106.379 300.532 106.379 300.065 106.368 299.598C106.378 299.508 106.367 299.418 106.337 299.333C106.306 299.248 106.257 299.171 106.193 299.108C106.128 299.045 106.051 298.998 105.965 298.97C105.88 298.942 105.79 298.934 105.701 298.946C104.915 298.946 104.129 298.946 103.343 298.946C102.911 298.946 102.732 299.163 102.734 299.585C102.734 300.358 102.719 301.132 102.734 301.905C102.734 302.411 102.518 302.628 102.024 302.609C101.614 302.593 101.201 302.609 100.791 302.609C100.173 302.596 100.068 302.498 100.065 301.881C100.065 300.174 100.065 298.466 100.065 296.759C100.065 295.644 100.065 294.53 100.065 293.416C100.065 292.918 100.253 292.679 100.763 292.701C101.195 292.716 101.626 292.716 102.058 292.701C102.568 292.679 102.764 292.918 102.754 293.418C102.738 294.12 102.743 294.821 102.754 295.521C102.754 296.135 102.872 296.244 103.483 296.253C104.233 296.253 104.984 296.253 105.733 296.253C106.165 296.253 106.381 296.035 106.381 295.601C106.381 294.865 106.396 294.128 106.381 293.39C106.381 292.914 106.58 292.695 107.057 292.71C107.43 292.723 107.808 292.723 108.182 292.71C108.667 292.695 108.847 292.927 108.845 293.405C108.834 294.823 108.845 296.244 108.845 297.665L108.832 297.641Z" fill="white"/>
<path d="M74.4234 297.648C74.4234 299.031 74.4234 300.413 74.4234 301.796C74.4234 302.487 74.322 302.592 73.6569 302.594C71.7698 302.594 71.975 302.763 71.962 300.947C71.962 300.479 71.962 300.012 71.962 299.546C71.962 299.155 71.7871 298.938 71.3834 298.938H69.0213C68.5894 298.938 68.421 299.172 68.4232 299.589C68.4232 300.324 68.4232 301.06 68.4232 301.796C68.4232 302.533 68.326 302.592 67.607 302.6C67.2313 302.6 66.8578 302.6 66.4821 302.6C65.8711 302.585 65.7631 302.485 65.7588 301.868C65.7588 300.348 65.7588 298.814 65.7588 297.289C65.7588 296.031 65.7588 294.776 65.7588 293.518C65.7588 292.79 65.8495 292.703 66.5534 292.695C66.9852 292.695 67.417 292.695 67.8488 292.695C68.2807 292.695 68.434 292.895 68.434 293.292C68.434 294.046 68.4469 294.813 68.434 295.556C68.434 296.025 68.624 296.253 69.1033 296.246C69.8525 296.246 70.6147 296.246 71.3531 296.246C71.785 296.246 71.9728 296.044 71.9728 295.621C71.9728 294.884 71.9879 294.148 71.9728 293.412C71.9728 292.921 72.1585 292.673 72.668 292.695C73.025 292.709 73.3849 292.709 73.7476 292.695C74.2485 292.673 74.458 292.899 74.4537 293.401C74.4148 294.811 74.4234 296.223 74.4234 297.648Z" fill="white"/>
<path d="M151.184 297.637C151.184 296.307 151.184 294.978 151.184 293.65C151.184 292.736 151.233 292.69 152.164 292.686C152.503 292.686 152.842 292.699 153.181 292.686C153.658 292.669 153.859 292.89 153.854 293.368C153.854 294.75 153.854 296.133 153.854 297.515C153.854 298.054 153.854 298.601 153.854 299.131C153.854 299.783 153.967 299.893 154.597 299.904C155.278 299.913 155.957 299.913 156.633 299.904C157.281 299.904 157.387 299.789 157.389 299.146C157.389 297.332 157.389 295.519 157.389 293.716C157.389 292.732 157.423 292.699 158.423 292.697C159.935 292.697 159.852 292.601 159.852 294.128C159.852 296.642 159.852 299.156 159.852 301.67C159.852 302.539 159.786 302.604 158.952 302.607H152.043C151.261 302.607 151.179 302.524 151.179 301.738C151.184 300.367 151.184 299.003 151.184 297.637Z" fill="white"/>
<path d="M166.082 297.617C166.082 296.253 166.082 294.886 166.082 293.52C166.082 292.775 166.172 292.695 166.926 292.688C167.282 292.688 167.64 292.688 168.005 292.688C168.454 292.675 168.664 292.881 168.653 293.34C168.653 293.915 168.653 294.489 168.653 295.065C168.653 296.246 168.653 296.216 169.802 296.257C170.135 296.258 170.466 296.191 170.773 296.062C171.081 295.932 171.36 295.742 171.594 295.503C171.828 295.264 172.012 294.98 172.135 294.668C172.259 294.356 172.319 294.023 172.313 293.687C172.265 292.734 172.345 292.692 173.306 292.69C174.863 292.69 174.763 292.584 174.763 294.146C174.759 294.218 174.759 294.291 174.763 294.363C174.908 295.473 174.645 296.379 173.699 297.1C173.107 297.55 173.168 297.632 173.66 298.216C173.707 298.293 173.766 298.362 173.835 298.418C174.74 298.959 174.852 299.809 174.768 300.751C174.731 301.162 174.755 301.579 174.768 301.992C174.781 302.405 174.593 302.6 174.189 302.598C173.742 302.598 173.295 302.598 172.848 302.598C172.776 302.605 172.704 302.596 172.635 302.571C172.567 302.547 172.506 302.507 172.455 302.455C172.404 302.403 172.366 302.34 172.342 302.271C172.319 302.203 172.311 302.129 172.319 302.057C172.311 301.967 172.311 301.877 172.319 301.788C172.522 300.66 171.926 299.874 171.127 299.257C170.814 299.016 170.303 298.97 169.879 298.955C168.67 298.916 168.67 298.942 168.668 300.169C168.668 300.78 168.668 301.392 168.668 302.003C168.668 302.4 168.483 302.604 168.083 302.602C167.684 302.6 167.219 302.602 166.788 302.602C166.278 302.622 166.088 302.385 166.092 301.881C166.082 300.458 166.082 299.046 166.082 297.617Z" fill="white"/>
<path d="M60.3502 292.688C61.5464 292.688 62.7425 292.688 63.9387 292.688C64.554 292.688 64.6534 292.799 64.6663 293.413C64.6663 293.809 64.6663 294.204 64.6663 294.6C64.6534 295.251 64.5562 295.355 63.9214 295.368C63.4572 295.368 62.993 295.368 62.5288 295.368C61.881 295.379 61.7774 295.486 61.7731 296.129C61.7731 297.977 61.7731 299.822 61.7731 301.677C61.7731 302.522 61.7061 302.582 60.849 302.587C60.4905 302.587 60.1343 302.587 59.7694 302.587C59.2944 302.604 59.0893 302.385 59.0936 301.907C59.0936 300.651 59.0936 299.394 59.0936 298.136C59.0936 297.484 59.0936 296.843 59.0936 296.198C59.0936 295.462 58.9943 295.373 58.2472 295.366C57.7117 295.366 57.1676 295.366 56.6408 295.366C56.1917 295.366 55.993 295.171 55.993 294.715C55.993 294.258 56.0038 293.783 55.993 293.316C55.9822 292.849 56.209 292.677 56.6537 292.679C57.8888 292.694 59.1195 292.69 60.3502 292.688Z" fill="white"/>
<path d="M179.269 297.602C179.269 296.218 179.269 294.834 179.269 293.45C179.269 292.799 179.371 292.701 180.016 292.688C180.409 292.688 180.802 292.688 181.195 292.688C181.83 292.701 181.929 292.799 181.934 293.461C181.934 295.169 181.934 296.876 181.934 298.581C181.934 298.779 181.934 298.979 181.934 299.174C181.951 299.785 182.055 299.9 182.668 299.902C184.132 299.902 185.596 299.902 187.062 299.902C187.845 299.902 187.925 299.987 187.925 300.771C187.925 301.129 187.925 301.49 187.925 301.857C187.912 302.496 187.811 302.602 187.161 302.604C185.535 302.604 183.909 302.604 182.283 302.604C181.498 302.604 180.712 302.604 179.926 302.604C179.449 302.604 179.248 302.398 179.252 301.922C179.278 300.478 179.269 299.046 179.269 297.602Z" fill="white"/>
<path d="M189.022 297.593C189.022 296.209 189.022 294.825 189.022 293.442C189.022 292.79 189.128 292.701 189.778 292.688C190.154 292.688 190.529 292.688 190.903 292.688C191.587 292.688 191.685 292.786 191.689 293.468C191.689 295.175 191.689 296.883 191.689 298.59C191.689 298.788 191.689 298.985 191.689 299.183C191.711 299.785 191.814 299.9 192.432 299.902C193.896 299.902 195.362 299.902 196.826 299.902C197.605 299.902 197.689 299.989 197.689 300.771C197.689 301.095 197.689 301.419 197.689 301.742C197.689 302.498 197.596 302.589 196.86 302.589C195.001 302.589 193.144 302.589 191.285 302.589C190.769 302.589 190.251 302.589 189.733 302.589C189.126 302.576 189.02 302.474 189.018 301.848C189.018 300.434 189.022 299.014 189.022 297.593Z" fill="white"/>
<path d="M109.808 297.608C109.808 296.262 109.808 294.915 109.808 293.568C109.808 292.758 109.879 292.699 110.704 292.686C111.08 292.686 111.455 292.686 111.829 292.686C112.278 292.686 112.477 292.884 112.477 293.338C112.477 294.252 112.477 295.169 112.477 296.083C112.477 297.933 112.477 299.782 112.477 301.631C112.477 302.539 112.418 302.594 111.496 302.596C111.157 302.596 110.816 302.596 110.479 302.596C110.002 302.613 109.801 302.392 109.806 301.916C109.806 300.48 109.806 299.044 109.806 297.608H109.808Z" fill="white"/>
<path d="M140.56 297.695C140.56 299.059 140.56 300.423 140.56 301.788C140.56 302.498 140.461 302.585 139.746 302.596C139.373 302.596 138.997 302.596 138.624 302.596C138.006 302.583 137.898 302.485 137.896 301.87C137.896 300.145 137.896 298.423 137.896 296.7C137.896 295.614 137.896 294.508 137.896 293.414C137.896 292.799 138.004 292.705 138.624 292.692C139.017 292.692 139.41 292.692 139.803 292.692C140.45 292.705 140.556 292.801 140.558 293.446C140.567 294.858 140.56 296.277 140.56 297.695Z" fill="white"/>
<path d="M178.402 297.654C178.402 299.037 178.402 300.419 178.402 301.801C178.402 302.489 178.3 302.583 177.629 302.593C177.236 302.593 176.843 302.593 176.452 302.593C175.845 302.578 175.739 302.478 175.737 301.855C175.737 299.754 175.737 297.654 175.737 295.555C175.737 294.819 175.737 294.083 175.737 293.346C175.737 292.912 175.923 292.679 176.385 292.694C176.847 292.71 177.279 292.708 177.724 292.694C178.231 292.675 178.423 292.912 178.419 293.409C178.389 294.819 178.4 296.237 178.402 297.654Z" fill="white"/>
<path d="M112.8 40.1147C119.236 38.3334 125.809 38.0576 132.411 38.0641C136.382 38.0641 140.353 38.0315 144.323 38.0858C149.089 38.1488 153.843 38.4268 158.518 39.4739C159.401 39.6715 160.284 39.8801 161.236 40.0995C162.1 38.7505 162.912 37.3863 163.814 36.0895C166.019 32.9224 168.145 29.6923 170.527 26.6663C172.881 23.6637 175.389 20.7866 178.041 18.0469C182.616 13.3309 187.509 8.9517 193.062 5.41095C196.415 3.27129 199.924 1.39447 203.845 0.512543C207.407 -0.289014 210.935 -0.293359 214.256 1.50308C216.428 2.68044 218.088 4.43995 219.393 6.52313C221.653 10.1377 222.964 14.139 223.91 18.2663C224.397 20.3972 224.853 22.5434 225.158 24.707C225.699 28.5649 226.123 32.4402 226.585 36.3089C226.874 38.7201 227.174 41.1291 227.407 43.5447C227.574 45.2824 227.641 47.0202 227.751 48.7689C227.967 52.301 228.277 55.8287 228.398 59.3629C228.554 64.3352 228.699 69.3161 228.586 74.2884C228.545 77.5079 228.215 80.717 227.6 83.8767C227.34 85.2369 227.296 86.6298 227.468 88.0039C227.794 90.9734 227.861 93.9733 227.992 96.9623C228.157 100.629 228.327 104.296 228.401 107.962C228.48 111.916 228.426 115.872 228.478 119.825C228.534 124.215 228.502 128.614 228.765 132.993C229.089 138.404 229.629 143.804 230.173 149.198C230.605 153.556 231.205 157.9 231.739 162.247C232.145 165.559 232.712 168.861 232.943 172.185C233.306 177.495 232.427 182.816 230.378 187.723C227.861 193.866 224.514 199.542 220.649 204.916C217.901 208.725 214.82 212.278 211.443 215.534C208.927 218.016 206.233 220.307 203.383 222.39C201.068 224.049 198.848 225.844 196.473 227.405C193.824 229.143 191.099 230.79 188.307 232.286C184.756 234.194 181.128 235.979 177.488 237.697C173.477 239.587 169.356 241.232 165.148 242.622C161.808 243.736 158.455 244.818 155.057 245.741C152.433 246.454 149.747 246.966 147.068 247.44C145.352 247.717 143.622 247.894 141.886 247.97C139.714 248.1 137.531 248.235 135.359 248.172C133.234 248.107 131.11 247.837 128.996 247.581C127.154 247.364 125.304 247.125 123.492 246.725C120.754 246.124 118.027 245.45 115.337 244.668C112.496 243.843 109.68 242.909 106.89 241.916C104.399 241.03 101.937 240.05 99.4997 239.02C97.3513 238.115 95.2332 237.128 93.1431 236.092C90.3362 234.708 87.5294 233.34 84.8304 231.789C81.5917 229.936 78.407 228.007 75.3302 225.911C71.0957 223.037 67.0978 219.826 63.375 216.307C60.5278 213.594 57.8647 210.691 55.4035 207.618C52.4855 203.944 49.872 200.036 47.5895 195.932C45.5426 192.295 43.6707 188.566 42.4788 184.534C41.7805 182.048 41.3114 179.503 41.0775 176.931C40.6846 173.191 41.2827 169.546 41.7663 165.872C42.0211 163.937 42.2867 162.006 42.522 160.07C42.9884 156.236 43.4612 152.402 43.8844 148.557C44.1975 145.703 44.4803 142.844 44.6963 139.981C44.9921 136.045 45.2857 132.107 45.4433 128.164C45.5707 124.936 45.4887 121.7 45.5081 118.467C45.5254 115.596 45.5254 112.724 45.5901 109.852C45.6787 105.903 45.7694 101.952 45.955 98.0049C46.1343 94.1449 46.4603 90.2913 46.6611 86.4312C46.7043 85.5754 46.5251 84.6934 46.3804 83.8397C45.8017 80.4206 45.5772 76.9711 45.3526 73.5129C45.0741 69.2075 45.4153 64.9239 45.4973 60.6315C45.5534 57.7707 45.7542 54.912 45.955 52.0555C46.1213 49.6834 46.3998 47.32 46.6028 44.9479C46.7798 42.8083 46.8748 40.6599 47.0713 38.5224C47.2484 36.5826 47.5031 34.6537 47.7406 32.7182C47.9069 31.2954 48.0451 29.8682 48.2545 28.4519C48.5813 26.2522 48.9354 24.0553 49.3168 21.8613C49.8605 18.521 50.7246 15.2415 51.897 12.0689C53.1925 8.68886 54.7428 5.49784 57.5108 3.05624C59.8189 1.02302 62.5135 0.0889529 65.5536 0.0411636C69.1205 -0.0153147 72.4132 1.00129 75.613 2.50448C79.1173 4.15104 82.3345 6.24943 85.4026 8.58676C89.6799 11.8451 93.575 15.5379 97.2779 19.448C101.097 23.4435 104.576 27.7546 107.678 32.3359C109.356 34.8861 111.023 37.4472 112.8 40.1147ZM45.385 164.213C45.1691 165.464 44.9122 166.711 44.774 167.971C44.5451 170.067 44.2515 172.172 44.2472 174.27C44.2472 178.749 45.3267 183.018 47.0994 187.112C48.5449 190.523 50.2741 193.805 52.2684 196.922C53.9352 199.488 55.4898 202.136 57.3553 204.556C59.4195 207.221 61.7189 209.712 64.0292 212.174C67.1881 215.543 70.8327 218.365 74.5097 221.13C77.5964 223.495 80.8518 225.628 84.2496 227.512C87.9353 229.517 91.5907 231.578 95.3778 233.377C100.59 235.874 105.968 238.003 111.474 239.748C114.713 240.771 117.937 241.829 121.255 242.592C124.244 243.318 127.272 243.871 130.324 244.249C133.13 244.564 135.937 244.792 138.744 244.649C141.119 244.529 143.464 244.236 145.82 243.969C146.878 243.851 147.925 243.63 148.97 243.419C150.697 243.065 152.451 242.724 154.171 242.298C155.514 241.966 156.831 241.523 158.153 241.11C160.759 240.295 163.384 239.544 165.954 238.629C168.564 237.697 171.123 236.622 173.688 235.571C179.559 233.166 185.162 230.216 190.628 227.004C195.705 223.979 200.52 220.531 205.023 216.696C209.611 212.827 213.728 208.425 217.287 203.582C220.378 199.387 223.098 194.928 225.417 190.256C226.969 187.147 228.254 183.941 229.005 180.535C229.493 178.315 229.903 176.051 229.735 173.801C229.5 170.627 229.009 167.471 228.627 164.308C228.429 162.77 228.221 161.232 228.031 159.692C227.684 156.886 227.319 154.079 227.01 151.266C226.686 148.331 226.41 145.401 226.129 142.453C225.861 139.629 225.481 136.819 225.384 133.995C225.203 128.929 225.181 123.857 225.117 118.789C225.069 115.077 225.099 111.364 225.019 107.652C224.965 105.221 224.745 102.795 224.65 100.366C224.529 97.2598 224.501 94.1492 224.35 91.0451C224.255 89.09 224.251 87.1068 223.342 85.3103C222.551 83.7507 221.729 82.1997 220.818 80.7074C218.166 76.3629 214.843 72.5593 211.335 68.9208C207.857 65.31 204.087 61.9961 200.064 59.0132C196.749 56.5403 193.224 54.3669 189.529 52.5182C187.396 51.456 187.349 51.267 188.32 49.0426C192.252 40.0452 198.088 32.464 205.332 25.9408C209.601 22.116 214.223 18.7097 219.136 15.7682C219.361 15.6176 219.577 15.4536 219.783 15.2773C218.92 12.3621 217.786 9.66203 215.951 7.30297C213.958 4.73538 211.369 3.32125 208.1 3.2387C205.004 3.16268 202.156 4.12063 199.401 5.39791C195.774 7.0814 192.544 9.4057 189.432 11.8907C184.338 15.9675 179.672 20.559 175.508 25.5932C172.874 28.7734 170.477 32.1578 168.057 35.5117C166.804 37.2495 165.734 39.1198 164.55 40.9814C164.766 41.1161 164.922 41.216 165.077 41.3224C165.883 41.8655 166.142 42.4955 165.861 43.2253C165.563 43.9987 164.831 44.3701 163.918 44.192C163.569 44.113 163.224 44.0158 162.886 43.9009C157.919 42.3428 152.757 41.5038 147.556 41.4093C141.562 41.3311 135.566 41.3529 129.57 41.329C123.222 41.3051 116.98 42.0284 110.909 43.9726C110.526 44.1005 110.129 44.1836 109.728 44.2202C109.385 44.267 109.037 44.1951 108.74 44.0165C108.443 43.8379 108.216 43.5632 108.095 43.2373C107.974 42.9115 107.966 42.5539 108.074 42.2233C108.182 41.8927 108.398 41.6088 108.687 41.418C108.903 41.2573 109.119 41.1269 109.335 40.9836C109.294 40.8432 109.242 40.7066 109.179 40.5752C106.633 36.5826 104.045 32.6248 101.121 28.8864C97.6034 24.3589 93.7274 20.1251 89.5309 16.2265C85.1327 12.1666 80.5186 8.40647 75.138 5.71289C72.1951 4.23794 69.1486 3.17354 65.8062 3.23219C63.3616 3.25145 61.0167 4.20956 59.251 5.91056C57.8979 7.20689 56.7992 8.74774 56.0123 10.4527C55.2588 12.0124 54.4664 13.5851 54.2116 15.3207C56.2498 16.6632 58.2665 17.9274 60.2227 19.2872C66.6547 23.7073 72.4099 29.0495 77.3058 35.1446C80.8835 39.6216 83.6774 44.5786 86.005 49.8094C86.4887 50.8955 86.2209 51.5841 85.1413 52.1598C83.2845 53.1481 81.3628 54.0344 79.5837 55.1488C75.9801 57.3997 72.5484 59.9178 69.317 62.6821C65.3866 66.0347 61.7295 69.6986 58.3809 73.6389C55.574 76.9537 53.0716 80.4771 51.0765 84.3654C50.1911 86.1092 49.714 88.0337 49.6817 89.9915C49.5716 93.5801 49.3989 97.1599 49.2629 100.753C49.1031 104.976 48.8915 109.198 48.831 113.423C48.7555 117.931 48.8073 122.438 48.831 126.946C48.8483 131.742 48.4122 136.504 47.9674 141.282C47.5982 145.134 47.2376 148.99 46.8252 152.837C46.5704 155.213 46.2206 157.576 45.9205 159.946C45.7197 161.367 45.5556 162.792 45.385 164.213ZM49.3794 80.1882C58.016 67.3046 68.8484 57.1624 82.4143 49.7768C76.1032 36.2046 65.8969 26.3666 53.3004 18.6095C53.1795 19.0439 53.0845 19.3437 53.0133 19.65C52.8211 20.6253 52.6333 21.605 52.4649 22.5803C52.0848 24.7721 51.6876 26.9596 51.3572 29.1601C51.1413 30.6111 51.0333 32.0796 50.8736 33.5415C50.5821 36.2264 50.2258 38.9069 50.0099 41.5983C49.7551 44.6851 49.6148 47.7827 49.4205 50.8738C49.2175 54.0887 48.9627 57.2993 48.8159 60.5164C48.708 62.9058 48.7295 65.2953 48.7015 67.6848C48.6352 71.8634 48.861 76.0415 49.3773 80.1882H49.3794ZM224.613 80.2121C224.639 79.6734 224.648 79.2932 224.676 78.9088C224.877 76.0848 225.19 73.2848 225.259 70.4674C225.397 64.7392 225.095 59.0175 224.676 53.3067C224.426 49.9028 224.348 46.4859 224.067 43.0841C223.789 39.7193 223.376 36.3654 222.972 33.0136C222.603 29.9356 222.208 26.8618 221.744 23.7968C221.487 22.0938 221.07 20.4146 220.708 18.6356C220.304 18.8528 220.014 18.9896 219.76 19.1656C217.341 20.836 214.867 22.4239 212.524 24.2008C204.233 30.4743 197.505 38.1249 192.684 47.4091C192.272 48.1998 191.969 49.0469 191.635 49.8224C205.19 57.2211 216.026 67.3481 224.611 80.2121H224.613Z" fill="#060404"/>
<path d="M45.3853 164.215C45.558 162.792 45.7221 161.367 45.9035 159.946C46.2036 157.576 46.5512 155.213 46.8081 152.837C47.2205 148.99 47.5811 145.134 47.9503 141.282C48.4037 136.504 48.8399 131.746 48.814 126.946C48.7945 122.438 48.7427 117.931 48.814 113.423C48.8831 109.198 49.0947 104.976 49.2458 100.753C49.3818 97.1664 49.5546 93.5844 49.6647 89.9915C49.697 88.0336 50.1741 86.1092 51.0595 84.3654C53.0545 80.4771 55.5527 76.9537 58.3639 73.6389C61.7125 69.6986 65.3696 66.0346 69.2999 62.6821C72.5313 59.9178 75.9631 57.3997 79.5667 55.1487C81.3458 54.0344 83.2674 53.1481 85.1243 52.1597C86.2039 51.5841 86.4738 50.8977 85.9879 49.8094C83.6604 44.5786 80.8665 39.6216 77.2888 35.1446C72.3929 29.0495 66.6376 23.7072 60.2056 19.2872C58.2494 17.9317 56.2328 16.6631 54.1946 15.3207C54.4493 13.5829 55.2417 12.0124 55.9953 10.4527C56.7822 8.7477 57.8809 7.20686 59.234 5.91053C60.9997 4.20952 63.3446 3.25141 65.7892 3.23215C69.1315 3.1735 72.1781 4.2379 75.121 5.71285C80.5016 8.41295 85.1157 12.1666 89.5138 16.2265C93.7103 20.1251 97.5864 24.3588 101.104 28.8863C104.028 32.6248 106.616 36.5826 109.162 40.5752C109.225 40.7066 109.277 40.8432 109.317 40.9835C109.102 41.1247 108.871 41.2551 108.67 41.418C108.378 41.6089 108.16 41.8947 108.052 42.2277C107.944 42.5606 107.952 42.9208 108.076 43.2483C108.199 43.5757 108.431 43.8507 108.731 44.0275C109.032 44.2044 109.383 44.2724 109.728 44.2202C110.123 44.1798 110.512 44.0946 110.887 43.966C116.959 42.011 123.194 41.2985 129.549 41.3224C135.545 41.3463 141.541 41.3224 147.534 41.4028C152.736 41.4973 157.898 42.3362 162.864 43.8944C163.203 44.0093 163.548 44.1064 163.896 44.1854C164.816 44.3636 165.548 43.9921 165.84 43.2188C166.12 42.4889 165.861 41.859 165.056 41.3159C164.9 41.2095 164.738 41.1095 164.529 40.9749C165.712 39.1133 166.783 37.243 168.035 35.5052C170.456 32.1512 172.852 28.7712 175.487 25.5867C179.653 20.549 184.321 15.9545 189.42 11.8755C192.531 9.39046 195.761 7.06616 199.388 5.38267C202.143 4.10539 205.002 3.14744 208.088 3.22347C211.356 3.30601 213.945 4.72014 215.938 7.28773C217.773 9.64678 218.911 12.3469 219.771 15.262C219.565 15.4384 219.348 15.6023 219.123 15.753C214.211 18.6945 209.589 22.1008 205.32 25.9256C198.076 32.4423 192.239 40.0299 188.308 49.0274C187.336 51.2539 187.384 51.4429 189.517 52.503C193.211 54.3517 196.737 56.5251 200.051 58.9979C204.074 61.9808 207.844 65.2948 211.322 68.9055C214.831 72.544 218.153 76.3542 220.805 80.6921C221.716 82.1845 222.532 83.7333 223.329 85.2951C224.238 87.0916 224.242 89.0835 224.337 91.0298C224.488 94.134 224.516 97.2446 224.637 100.351C224.732 102.779 224.953 105.206 225.007 107.637C225.086 111.349 225.056 115.061 225.104 118.774C225.169 123.844 225.19 128.916 225.371 133.979C225.473 136.803 225.849 139.627 226.116 142.438C226.397 145.377 226.673 148.316 226.997 151.251C227.306 154.075 227.671 156.87 228.019 159.677C228.209 161.217 228.416 162.755 228.615 164.293C227.593 163.478 226.598 162.623 225.544 161.849C216.59 155.267 206.997 150.236 195.653 149.502C198.02 146.966 199.95 144.05 201.362 140.874C203.047 137.073 203.95 132.969 204.015 128.807C204.031 126.129 203.693 123.461 203.009 120.872C202.454 118.678 201.804 116.508 201.202 114.342C196.627 113.908 192.201 113.988 187.815 114.938C173.235 118.105 163.652 126.831 159.198 141.174C158.186 144.538 157.63 148.025 157.546 151.54C157.432 154.978 157.464 158.398 158.442 161.736L155.966 163.276C150.445 158.369 144.127 155.949 136.883 155.96C129.639 155.971 123.352 158.45 117.926 163.283L115.441 161.734C115.668 160.807 115.996 159.892 116.104 158.951C116.713 153.597 116.516 148.275 115.21 143.031C112.383 131.625 105.887 123.094 95.2615 117.95C88.1838 114.525 80.6527 113.606 72.8064 114.351C72.7071 114.612 72.571 114.896 72.4847 115.196C72.0528 116.688 71.5908 118.174 71.2129 119.68C70.2025 123.681 69.6087 127.717 70.1334 131.868C70.9495 138.352 73.4045 144.069 77.7897 148.92C77.9562 149.131 78.1077 149.354 78.2431 149.587C76.0665 149.61 73.899 149.875 71.7808 150.38C63.3774 152.42 55.8636 156.314 48.9414 161.441C47.7387 162.336 46.5706 163.281 45.3853 164.215ZM114.832 119.069C116.004 118.852 117.442 118.73 118.792 118.313C121.568 117.444 123.268 115.596 123.652 112.589C123.89 110.743 123.512 109.018 122.909 107.317C121.305 102.793 118.436 99.1649 114.849 96.0933C110.417 92.2984 105.489 89.5027 99.556 88.9771C96.6174 88.7164 93.8364 89.2681 91.5456 91.2818C89.0906 93.4388 88.1838 96.3127 88.4256 99.4712C88.8942 105.61 91.9537 110.332 96.8873 113.784C102.171 117.477 108.305 118.533 114.832 119.069ZM159.403 119.047L159.416 118.965C159.848 118.965 160.28 118.997 160.725 118.965C164.648 118.654 168.51 117.795 172.198 116.412C177.179 114.514 181.01 111.236 183.516 106.481C184.954 103.753 185.773 100.853 185.492 97.7268C185.108 93.4432 182.547 90.2435 178.438 89.2725C175.679 88.6208 172.986 88.9423 170.339 89.7547C163.814 91.7554 158.626 95.698 154.465 101.05C152.464 103.631 150.998 106.501 150.38 109.739C149.534 114.175 151.648 117.492 155.994 118.541C157.108 118.819 158.265 118.887 159.403 119.047Z" fill="white"/>
<path d="M195.661 149.516C207.006 150.25 216.605 155.281 225.553 161.863C226.606 162.636 227.602 163.492 228.623 164.306C229.005 167.469 229.487 170.625 229.731 173.799C229.899 176.06 229.489 178.324 229.001 180.533C228.249 183.939 226.965 187.145 225.412 190.254C223.094 194.926 220.374 199.385 217.283 203.581C213.723 208.423 209.607 212.825 205.019 216.694C200.516 220.529 195.701 223.977 190.624 227.002C185.157 230.214 179.554 233.164 173.683 235.569C171.118 236.62 168.56 237.696 165.949 238.627C163.38 239.542 160.755 240.294 158.148 241.108C156.827 241.521 155.51 241.964 154.167 242.296C152.44 242.731 150.712 243.063 148.966 243.417C147.921 243.635 146.873 243.852 145.815 243.967C143.46 244.234 141.104 244.527 138.74 244.647C135.933 244.79 133.126 244.562 130.319 244.247C127.267 243.869 124.24 243.316 121.251 242.59C117.932 241.827 114.711 240.769 111.47 239.746C105.964 238.001 100.585 235.872 95.3735 233.375C91.5928 231.568 87.9309 229.506 84.2453 227.51C80.849 225.626 77.5951 223.494 74.5097 221.13C70.8391 218.365 67.188 215.543 64.0292 212.174C61.7189 209.713 59.4194 207.221 57.3553 204.556C55.4898 202.145 53.9352 199.488 52.2683 196.923C50.2741 193.805 48.5449 190.523 47.0994 187.113C45.3289 183.018 44.2385 178.75 44.2471 174.27C44.2471 172.17 44.5451 170.065 44.774 167.971C44.9121 166.711 45.1777 165.464 45.385 164.213C46.5725 163.288 47.7406 162.336 48.9519 161.441C55.8741 156.315 63.3879 152.42 71.7913 150.38C73.9096 149.876 76.077 149.61 78.2536 149.587C78.5624 149.82 78.882 150.041 79.1799 150.289C80.1235 151.08 81.0281 151.922 82.0041 152.678C86.3224 155.989 91.3013 157.746 96.5438 158.876C102.792 160.22 109.155 160.809 115.464 161.756L117.95 163.305C123.375 158.472 129.669 155.993 136.907 155.982C144.144 155.972 150.468 158.391 155.989 163.298L158.464 161.758L165.654 160.787C170.291 160.16 174.925 159.523 179.472 158.398C185.028 157.019 190.08 154.657 194.329 150.721C194.77 150.304 195.23 149.913 195.661 149.516ZM84.5735 188.961C84.5238 189.55 84.4871 190.265 84.4007 190.962C84.1611 192.871 84.0747 194.783 84.3813 196.69C84.9686 200.355 86.6419 203.474 89.1573 206.152C92.2859 209.485 96.1378 211.64 100.43 213.036C106.72 215.08 113.137 215.341 119.606 214.157C125.908 213.002 131.682 210.586 136.708 206.511C136.78 206.46 136.86 206.421 136.943 206.394C138.371 207.362 139.712 208.366 141.134 209.218C146.036 212.183 151.367 213.875 157.034 214.537C162.877 215.219 168.605 214.755 174.178 212.8C178.68 211.227 182.672 208.837 185.721 205.075C188.819 201.252 190.255 196.899 189.633 191.931C189.506 190.914 189.432 189.889 189.346 188.981C190.685 187.543 192.179 188.234 193.524 188.384C194.172 187.441 194.103 187.009 193.219 186.657C191.708 186.061 190.259 186.248 188.901 187.091C188.055 187.61 187.606 188.368 187.664 189.385C187.705 190.061 187.744 190.738 187.85 191.405C188.387 194.783 187.951 198.009 186.371 201.052C184.859 203.952 182.659 206.215 179.977 208.025C175.802 210.849 171.153 212.324 166.187 212.845C157.82 213.714 149.903 212.254 142.555 208.066C140.91 207.13 139.392 205.966 137.93 204.982V203.085C138.349 202.955 138.72 202.833 139.098 202.723C146.491 200.563 152.764 196.64 157.784 190.734C159.373 188.868 160.651 186.813 161.348 184.434C162.814 179.438 159.984 174.603 154.914 173.467C154.024 173.267 153.124 173.106 152.222 172.987C148.119 172.444 143.995 172.296 139.867 172.296C136.097 172.296 132.323 172.309 128.557 172.476C125.709 172.604 122.864 172.911 120.033 173.265C114.514 173.947 110.295 179.41 113.124 185.864C113.911 187.657 114.96 189.321 116.237 190.801C120.458 195.778 125.897 199.56 132.016 201.773C133.351 202.26 134.709 202.679 136.069 203.133V204.847C135.611 205.212 135.186 205.568 134.743 205.903C125.653 212.78 112.092 215.013 101.091 211.446C96.9432 210.102 93.21 208.062 90.239 204.795C86.7974 201.009 85.3011 196.592 86.1496 191.457C86.2468 190.827 86.3095 190.192 86.3375 189.554C86.369 189.215 86.3329 188.873 86.2313 188.548C86.1297 188.223 85.9647 187.922 85.7459 187.662C84.6879 186.435 82.1163 185.942 80.6676 186.689C79.9054 187.082 79.8298 187.452 80.3955 188.388C81.7277 188.24 83.2175 187.56 84.5756 188.961H84.5735ZM76.5134 164.198C75.844 164.352 75.4468 164.68 75.5288 165.369C75.5649 165.608 75.6881 165.825 75.8744 165.978C76.0608 166.131 76.297 166.209 76.5371 166.196C77.0186 166.155 77.377 165.897 77.4548 165.408C77.5562 164.732 77.2021 164.367 76.5155 164.189L76.5134 164.198ZM198.419 165.162C198.406 164.901 198.293 164.656 198.102 164.479C197.911 164.302 197.659 164.207 197.4 164.215C197.141 164.237 196.9 164.358 196.728 164.553C196.555 164.749 196.464 165.003 196.473 165.264C196.489 165.525 196.605 165.769 196.797 165.945C196.989 166.121 197.242 166.214 197.501 166.205C197.63 166.198 197.757 166.165 197.874 166.108C197.99 166.051 198.094 165.971 198.18 165.873C198.266 165.775 198.331 165.661 198.372 165.538C198.414 165.414 198.43 165.284 198.421 165.154L198.419 165.162ZM91.785 184.278C92.0427 184.275 92.2895 184.174 92.4747 183.993C92.6599 183.813 92.7693 183.568 92.7804 183.309C92.7809 183.05 92.6793 182.8 92.4976 182.616C92.3159 182.431 92.069 182.327 91.8109 182.325C91.6832 182.321 91.556 182.342 91.4366 182.388C91.3172 182.434 91.2082 182.503 91.1159 182.592C91.0235 182.681 90.9498 182.787 90.8989 182.905C90.8481 183.023 90.8212 183.15 90.8199 183.279C90.8263 183.535 90.9301 183.78 91.11 183.962C91.2898 184.144 91.5321 184.25 91.7872 184.258L91.785 184.278ZM170.615 169.196C170.622 169.067 170.604 168.939 170.56 168.817C170.517 168.696 170.45 168.584 170.363 168.489C170.277 168.395 170.172 168.318 170.055 168.264C169.939 168.211 169.813 168.181 169.685 168.177C169.557 168.172 169.43 168.191 169.31 168.235C169.189 168.278 169.079 168.346 168.985 168.432C168.89 168.519 168.814 168.623 168.76 168.74C168.706 168.856 168.675 168.982 168.669 169.11C168.663 169.239 168.682 169.367 168.726 169.488C168.769 169.609 168.836 169.72 168.922 169.815C169.008 169.909 169.112 169.986 169.228 170.041C169.343 170.095 169.469 170.127 169.596 170.132C169.725 170.14 169.853 170.122 169.975 170.079C170.096 170.036 170.208 169.969 170.303 169.881C170.398 169.794 170.475 169.688 170.528 169.571C170.582 169.453 170.612 169.326 170.615 169.196ZM183.138 183.316C183.144 183.188 183.125 183.06 183.081 182.94C183.037 182.82 182.969 182.71 182.882 182.616C182.795 182.523 182.69 182.449 182.573 182.397C182.456 182.345 182.331 182.318 182.203 182.316C182.076 182.304 181.947 182.319 181.826 182.36C181.705 182.401 181.593 182.467 181.499 182.554C181.405 182.642 181.331 182.748 181.281 182.867C181.23 182.985 181.206 183.113 181.208 183.242C181.201 183.37 181.219 183.498 181.262 183.618C181.305 183.739 181.371 183.85 181.456 183.945C181.542 184.04 181.645 184.116 181.761 184.17C181.876 184.225 182.001 184.255 182.128 184.261C182.385 184.263 182.634 184.165 182.822 183.988C183.01 183.811 183.123 183.568 183.138 183.309V183.316ZM104.308 170.128C104.435 170.134 104.563 170.114 104.682 170.068C104.801 170.022 104.909 169.951 104.999 169.861C105.09 169.771 105.161 169.662 105.208 169.543C105.254 169.424 105.276 169.296 105.271 169.168C105.28 169.04 105.261 168.912 105.218 168.792C105.174 168.671 105.106 168.562 105.017 168.469C104.929 168.377 104.822 168.305 104.704 168.257C104.586 168.209 104.459 168.186 104.332 168.19C104.205 168.189 104.08 168.212 103.962 168.26C103.845 168.307 103.738 168.377 103.647 168.466C103.557 168.555 103.485 168.66 103.435 168.777C103.385 168.894 103.358 169.02 103.357 169.147C103.355 169.274 103.379 169.401 103.426 169.519C103.473 169.637 103.542 169.745 103.631 169.836C103.719 169.927 103.824 170 103.94 170.05C104.057 170.1 104.182 170.126 104.308 170.128Z" fill="white"/>
<path d="M49.3773 80.1883C48.8626 76.0473 48.6375 71.875 48.7037 67.7022C48.7317 65.3128 48.7037 62.9233 48.8181 60.5338C48.9649 57.3168 49.2197 54.1062 49.4227 50.8913C49.617 47.8002 49.7573 44.7025 50.0121 41.6158C50.228 38.9244 50.5821 36.2438 50.8758 33.5589C51.0355 32.097 51.1435 30.6286 51.3594 29.1775C51.6898 26.9771 52.087 24.7896 52.467 22.5978C52.6355 21.6181 52.8233 20.6428 53.0155 19.6675C53.0781 19.3612 53.1817 19.0614 53.3026 18.627C65.8969 26.3667 76.1032 36.2047 82.4187 49.7769C68.8463 57.1625 58.0053 67.3047 49.3773 80.1883Z" fill="white"/>
<path d="M224.612 80.2121C216.027 67.348 205.19 57.2211 191.633 49.8246C191.967 49.0491 192.281 48.2019 192.682 47.4112C197.504 38.1271 204.231 30.4677 212.523 24.203C214.865 22.4326 217.34 20.8382 219.758 19.1677C220.013 18.9918 220.302 18.8614 220.706 18.6377C221.068 20.4168 221.485 22.0959 221.742 23.7989C222.206 26.864 222.606 29.9377 222.971 33.0158C223.374 36.3675 223.787 39.7215 224.065 43.0863C224.346 46.488 224.424 49.9049 224.674 53.3088C225.093 59.024 225.395 64.7457 225.257 70.4696C225.188 73.2935 224.875 76.0978 224.674 78.9109C224.646 79.2932 224.637 79.6734 224.612 80.2121Z" fill="white"/>
<path d="M195.662 149.515C195.217 149.913 194.768 150.304 194.329 150.708C190.08 154.644 185.028 157.007 179.472 158.385C174.921 159.514 170.287 160.151 165.654 160.774L158.464 161.745C157.488 158.406 157.456 154.987 157.57 151.549C157.654 148.034 158.209 144.547 159.222 141.183C163.676 126.846 173.256 118.113 187.839 114.946C192.213 113.997 196.64 113.921 201.226 114.351C201.828 116.523 202.478 118.696 203.033 120.881C203.716 123.469 204.055 126.138 204.039 128.816C203.974 132.977 203.071 137.082 201.385 140.883C199.969 144.061 198.035 146.979 195.662 149.515ZM161.692 159.33C162.286 159.33 162.681 159.364 163.067 159.33C164.399 159.18 165.734 159.041 167.057 158.832C169.899 158.398 172.744 157.946 175.573 157.42C180.39 156.523 185.032 155.107 189.219 152.446C191.827 150.771 194.147 148.682 196.089 146.259C197.743 144.219 199.076 141.936 200.04 139.488C201.326 136.358 202.062 133.027 202.215 129.644C202.272 127.455 202.102 125.267 201.707 123.114C201.429 121.48 201.016 119.871 200.656 118.222C200.224 118.174 199.926 118.116 199.619 118.111C196.456 118.022 193.292 118.245 190.173 118.778C185.759 119.562 181.529 121.169 177.702 123.516C175.424 124.913 173.479 126.72 171.589 128.614C168.644 131.566 166.502 135.042 164.896 138.839C162.69 144.055 161.596 149.679 161.683 155.348C161.709 156.61 161.694 157.878 161.694 159.33H161.692ZM159.662 159.653L159.906 159.671C159.94 159.523 159.962 159.372 159.973 159.221C159.973 157.151 159.949 155.078 160.005 153.008C160.127 149.536 160.696 146.095 161.7 142.771C164.147 134.403 168.674 127.493 175.964 122.616C183.089 117.859 191.011 116.054 199.479 116.354C199.646 116.338 199.81 116.3 199.967 116.241C199.91 116.155 199.834 116.083 199.745 116.032C199.656 115.981 199.556 115.952 199.453 115.948C196.091 115.694 192.711 115.839 189.383 116.382C181.066 117.772 173.992 121.459 168.346 127.804C164.229 132.428 161.672 137.859 160.269 143.878C159.271 148.153 159.138 152.491 159.345 156.851C159.388 157.783 159.556 158.719 159.664 159.653H159.662Z" fill="#060403"/>
<path d="M115.462 161.747C109.153 160.8 102.79 160.212 96.5417 158.867C91.2993 157.737 86.3225 155.98 82.002 152.67C81.0261 151.922 80.1214 151.08 79.1779 150.28C78.8799 150.032 78.5603 149.811 78.2516 149.579C78.1162 149.346 77.9647 149.123 77.7982 148.912C73.413 144.061 70.958 138.344 70.1418 131.86C69.6193 127.706 70.2131 123.672 71.2214 119.671C71.5993 118.166 72.0592 116.68 72.4932 115.188C72.5795 114.888 72.7091 114.603 72.8149 114.343C80.659 113.597 88.1901 114.516 95.27 117.942C105.886 123.081 112.383 131.616 115.231 143.036C116.527 148.279 116.743 153.601 116.125 158.956C116.017 159.905 115.689 160.82 115.462 161.747ZM73.441 117.998C73.2933 118.323 73.1691 118.659 73.0696 119.002C72.7263 120.833 72.4219 122.675 72.0613 124.5C71.5453 127.022 71.5798 129.574 71.921 132.081C72.4162 135.796 73.613 139.382 75.4469 142.645C77.2103 145.767 79.5494 148.522 82.3389 150.762C86.0094 153.749 90.291 155.524 94.823 156.651C100.035 157.955 105.379 158.524 110.682 159.308C111.202 159.386 111.749 159.284 112.282 159.265C112.323 158.965 112.362 158.811 112.366 158.654C112.455 155.155 112.232 151.654 111.701 148.195C111.185 144.769 110.208 141.43 108.797 138.27C106.685 133.563 103.76 129.466 99.7804 126.127C96.0257 122.977 91.7722 120.872 87.1127 119.545C84.8305 118.893 82.5159 118.396 80.13 118.311C77.9212 118.235 75.7146 118.098 73.441 117.998ZM114.046 159.601L114.329 159.566C114.409 158.543 114.467 157.518 114.575 156.499C115.007 152.326 114.62 148.201 113.724 144.135C111.729 135.077 107.139 127.663 99.4997 122.354C91.8607 117.045 83.2522 115.224 74.0585 116.004C73.9959 116.004 73.9419 116.15 73.7606 116.391H77.8025C80.8189 116.422 83.8191 116.84 86.7306 117.634C97.1484 120.368 104.895 126.477 109.719 136.213C112.563 141.952 113.854 148.08 114.037 154.46C114.091 156.173 114.046 157.887 114.046 159.601Z" fill="#050403"/>
<path d="M114.832 119.069C108.305 118.531 102.175 117.477 96.8871 113.784C91.9535 110.341 88.8983 105.61 88.4254 99.4714C88.1836 96.3129 89.0904 93.439 91.5454 91.282C93.8362 89.2683 96.6172 88.7166 99.5558 88.9773C105.489 89.503 110.416 92.2986 114.849 96.0935C118.435 99.1651 121.305 102.793 122.909 107.318C123.512 109.018 123.889 110.743 123.652 112.59C123.268 115.596 121.568 117.447 118.796 118.316C117.442 118.73 116.004 118.854 114.832 119.069ZM113.968 117.114C114.763 117.114 115.557 117.136 116.343 117.114C116.739 117.078 117.131 117.006 117.513 116.897C120.448 116.222 121.989 114.251 121.927 111.236C121.914 110.718 121.858 110.201 121.758 109.692C121.449 108.08 120.859 106.536 120.016 105.13C116.06 98.4808 110.364 93.9908 103.08 91.5644C100.845 90.8193 98.5237 90.5456 96.153 90.9953C92.9143 91.6078 90.6493 93.8974 90.1786 97.1427C89.9255 98.8883 90.059 100.669 90.5695 102.356C91.8649 106.661 94.3976 110.061 98.0682 112.55C102.87 115.807 108.333 116.836 113.977 117.121L113.968 117.114Z" fill="#0C0706"/>
<path d="M159.403 119.047C158.265 118.887 157.108 118.83 155.996 118.55C151.648 117.501 149.534 114.184 150.382 109.748C151 106.505 152.466 103.635 154.467 101.059C158.628 95.698 163.816 91.7554 170.341 89.7634C172.988 88.951 175.681 88.6295 178.44 89.2812C182.543 90.2522 185.11 93.4519 185.494 97.7356C185.775 100.861 184.957 103.761 183.519 106.49C181.012 111.245 177.182 114.527 172.2 116.421C168.511 117.802 164.649 118.659 160.725 118.967C160.293 119.004 159.861 118.967 159.416 118.967L159.403 119.047ZM160.029 117.212C164.393 117.071 168.616 116.204 172.608 114.425C176.927 112.502 180.209 109.405 182.307 105.11C183.409 102.856 184.009 100.483 183.849 97.9419C183.616 94.2361 181.245 91.6055 177.624 90.9777C175.58 90.6372 173.484 90.786 171.507 91.4122C163.803 93.751 157.897 98.4133 153.787 105.399C152.865 106.944 152.272 108.664 152.047 110.452C151.693 113.402 152.826 115.665 155.683 116.673C157.091 117.175 158.55 117.216 160.036 117.212H160.029Z" fill="#0B0705"/>
<path d="M84.5757 188.961C83.2176 187.56 81.7277 188.24 80.3783 188.383C79.8126 187.447 79.8882 187.08 80.6503 186.685C82.0991 185.938 84.6707 186.431 85.7286 187.658C85.9474 187.918 86.1125 188.219 86.2141 188.544C86.3156 188.869 86.3518 189.211 86.3203 189.55C86.2923 190.187 86.2296 190.822 86.1324 191.453C85.2838 196.588 86.7801 201.011 90.2218 204.79C93.1928 208.049 96.926 210.097 101.074 211.442C112.085 215.009 125.636 212.776 134.726 205.898C135.169 205.564 135.59 205.207 136.052 204.843V203.129C134.692 202.675 133.333 202.26 131.999 201.769C125.88 199.556 120.441 195.774 116.22 190.797C114.943 189.317 113.893 187.652 113.107 185.859C110.287 179.416 114.506 173.953 120.016 173.26C122.846 172.908 125.692 172.609 128.54 172.472C132.306 172.305 136.08 172.292 139.85 172.292C143.978 172.292 148.104 172.439 152.204 172.982C153.107 173.102 154.007 173.262 154.897 173.462C159.966 174.598 162.797 179.434 161.331 184.43C160.634 186.819 159.355 188.866 157.766 190.729C152.746 196.629 146.474 200.559 139.081 202.718C138.703 202.829 138.332 202.951 137.913 203.081V204.988C139.375 205.972 140.893 207.136 142.538 208.073C149.879 212.261 157.803 213.72 166.17 212.852C171.136 212.33 175.784 210.849 179.96 208.031C182.642 206.222 184.846 203.958 186.353 201.059C187.934 198.017 188.37 194.789 187.832 191.412C187.727 190.745 187.688 190.067 187.647 189.391C187.584 188.375 188.038 187.617 188.884 187.098C190.253 186.255 191.712 186.068 193.202 186.663C194.085 187.015 194.152 187.447 193.507 188.39C192.161 188.24 190.667 187.549 189.329 188.987C189.415 189.895 189.488 190.921 189.616 191.937C190.246 196.905 188.802 201.258 185.703 205.082C182.655 208.844 178.663 211.233 174.161 212.806C168.588 214.761 162.86 215.228 157.017 214.544C151.349 213.892 146.018 212.189 141.117 209.224C139.694 208.355 138.353 207.358 136.926 206.4C136.842 206.427 136.763 206.467 136.691 206.517C131.664 210.592 125.895 213.008 119.588 214.164C113.111 215.348 106.703 215.087 100.413 213.043C96.1206 211.646 92.2687 209.491 89.1401 206.159C86.6247 203.481 84.9514 200.361 84.3641 196.697C84.0575 194.789 84.1481 192.878 84.3835 190.968C84.4893 190.258 84.526 189.55 84.5757 188.961ZM136.903 174.19C135.197 174.19 133.489 174.16 131.781 174.19C130.073 174.22 128.307 174.394 126.569 174.407C124.279 174.457 121.998 174.698 119.748 175.128C115.646 175.85 112.787 180.031 114.521 184.56C115.574 187.313 117.369 189.509 119.338 191.585C120.342 192.643 121.514 193.54 122.65 194.472C126.364 197.498 130.514 199.655 135.186 200.733C135.873 200.889 136.605 201.056 137.289 200.982C138.346 200.848 139.39 200.619 140.407 200.298C142.76 199.599 145.022 198.621 147.146 197.385C150.51 195.423 153.533 192.921 156.095 189.978C157.219 188.643 158.185 187.181 158.971 185.62C159.804 184.12 160.109 182.38 159.835 180.683C159.588 179.324 158.939 178.072 157.972 177.09C157.005 176.109 155.766 175.445 154.417 175.185C151.116 174.501 147.761 174.353 144.41 174.229C141.899 174.127 139.405 174.201 136.903 174.201V174.19Z" fill="#090707"/>
<path d="M76.5157 164.189C77.2024 164.363 77.5629 164.732 77.4571 165.399C77.3794 165.888 77.0253 166.146 76.5395 166.187C76.2993 166.2 76.0631 166.122 75.8768 165.969C75.6905 165.816 75.5673 165.599 75.5312 165.36C75.4491 164.671 75.8464 164.343 76.5157 164.189Z" fill="#A9433E"/>
<path d="M198.421 165.153C198.429 165.282 198.412 165.412 198.37 165.534C198.329 165.657 198.263 165.77 198.178 165.867C198.093 165.963 197.989 166.042 197.873 166.099C197.758 166.155 197.632 166.188 197.503 166.196C197.244 166.205 196.991 166.112 196.8 165.936C196.608 165.76 196.491 165.516 196.476 165.255C196.467 164.994 196.558 164.739 196.73 164.544C196.903 164.349 197.143 164.228 197.402 164.206C197.661 164.198 197.914 164.292 198.104 164.47C198.295 164.647 198.409 164.892 198.421 165.153Z" fill="#AA4641"/>
<path d="M91.7874 184.258C91.5294 184.249 91.2849 184.14 91.105 183.954C90.9251 183.768 90.8238 183.519 90.8223 183.259C90.8236 183.13 90.8505 183.003 90.9013 182.885C90.9522 182.768 91.0259 182.661 91.1183 182.572C91.2106 182.483 91.3196 182.414 91.439 182.368C91.5584 182.322 91.6856 182.301 91.8133 182.305C92.0714 182.307 92.3183 182.411 92.5 182.596C92.6817 182.78 92.7833 183.03 92.7828 183.289C92.7717 183.548 92.6623 183.793 92.4771 183.973C92.2919 184.154 92.0451 184.256 91.7874 184.258Z" fill="#A7413D"/>
<path d="M170.615 169.196C170.611 169.325 170.58 169.451 170.526 169.568C170.472 169.684 170.395 169.789 170.3 169.876C170.205 169.962 170.094 170.028 169.973 170.071C169.852 170.114 169.724 170.131 169.596 170.124C169.469 170.118 169.344 170.087 169.228 170.032C169.112 169.978 169.008 169.901 168.922 169.806C168.836 169.711 168.769 169.6 168.726 169.479C168.683 169.358 168.663 169.23 168.669 169.101C168.675 168.973 168.706 168.847 168.76 168.731C168.814 168.614 168.891 168.51 168.985 168.423C169.079 168.337 169.19 168.27 169.31 168.226C169.43 168.182 169.557 168.163 169.685 168.168C169.814 168.172 169.941 168.202 170.058 168.256C170.175 168.31 170.28 168.388 170.367 168.484C170.454 168.58 170.52 168.692 170.563 168.814C170.606 168.937 170.624 169.067 170.615 169.196Z" fill="#A9443F"/>
<path d="M183.139 183.309C183.122 183.566 183.008 183.808 182.82 183.984C182.632 184.159 182.385 184.256 182.128 184.254C182.001 184.248 181.876 184.218 181.761 184.164C181.646 184.109 181.542 184.033 181.457 183.938C181.371 183.843 181.305 183.732 181.262 183.611C181.22 183.491 181.202 183.363 181.208 183.235C181.206 183.106 181.231 182.978 181.281 182.86C181.331 182.741 181.406 182.635 181.5 182.547C181.594 182.46 181.705 182.394 181.826 182.353C181.948 182.312 182.076 182.297 182.204 182.31C182.331 182.311 182.457 182.339 182.573 182.39C182.69 182.442 182.795 182.516 182.882 182.609C182.969 182.703 183.037 182.813 183.081 182.933C183.125 183.053 183.145 183.181 183.139 183.309Z" fill="#A8423D"/>
<path d="M104.304 170.121C104.177 170.12 104.052 170.093 103.936 170.043C103.82 169.993 103.715 169.92 103.626 169.829C103.538 169.738 103.468 169.63 103.421 169.512C103.374 169.394 103.351 169.268 103.353 169.14C103.354 169.013 103.381 168.888 103.43 168.771C103.48 168.654 103.553 168.548 103.643 168.459C103.734 168.37 103.841 168.3 103.958 168.253C104.075 168.206 104.201 168.182 104.327 168.184C104.455 168.179 104.581 168.202 104.699 168.25C104.818 168.298 104.924 168.371 105.013 168.463C105.101 168.555 105.17 168.665 105.213 168.785C105.257 168.905 105.275 169.033 105.267 169.161C105.272 169.289 105.25 169.417 105.203 169.536C105.156 169.656 105.086 169.764 104.995 169.854C104.904 169.944 104.796 170.015 104.677 170.061C104.558 170.107 104.431 170.127 104.304 170.121Z" fill="#A7403C"/>
<path d="M161.694 159.33C161.694 157.879 161.709 156.61 161.694 155.339C161.606 149.671 162.701 144.047 164.907 138.83C166.507 135.033 168.648 131.558 171.6 128.606C173.489 126.711 175.435 124.913 177.712 123.507C181.54 121.16 185.77 119.554 190.184 118.77C193.303 118.236 196.467 118.013 199.63 118.103C199.937 118.103 200.243 118.166 200.666 118.214C201.027 119.862 201.439 121.472 201.718 123.105C202.113 125.258 202.283 127.447 202.225 129.635C202.072 133.019 201.337 136.35 200.051 139.48C199.087 141.927 197.754 144.211 196.1 146.251C194.158 148.674 191.837 150.763 189.229 152.437C185.043 155.098 180.401 156.515 175.584 157.412C172.755 157.937 169.909 158.378 167.068 158.824C165.744 159.041 164.41 159.171 163.078 159.321C162.683 159.371 162.288 159.33 161.694 159.33Z" fill="#1F1F1F"/>
<path d="M159.664 159.653C159.556 158.717 159.392 157.783 159.347 156.844C159.131 152.485 159.273 148.155 160.271 143.872C161.674 137.859 164.231 132.428 168.348 127.797C173.994 121.452 181.068 117.766 189.385 116.375C192.713 115.833 196.093 115.687 199.455 115.941C199.558 115.945 199.658 115.974 199.747 116.025C199.836 116.076 199.912 116.148 199.969 116.234C199.812 116.293 199.648 116.331 199.481 116.347C191.013 116.047 183.071 117.853 175.966 122.61C168.676 127.487 164.149 134.396 161.702 142.764C160.698 146.088 160.129 149.53 160.007 153.002C159.951 155.072 159.986 157.144 159.975 159.214C159.964 159.366 159.942 159.516 159.908 159.664L159.664 159.653Z" fill="#6C605A"/>
<path d="M73.441 117.999C75.7146 118.107 77.9212 118.235 80.1343 118.314C82.5202 118.398 84.8348 118.898 87.117 119.547C91.7765 120.875 96.03 122.979 99.7847 126.129C103.764 129.468 106.694 133.565 108.801 138.272C110.212 141.433 111.189 144.772 111.705 148.197C112.236 151.657 112.459 155.157 112.37 158.656C112.37 158.813 112.327 158.967 112.286 159.267C111.753 159.286 111.207 159.388 110.686 159.31C105.383 158.526 100.039 157.95 94.8273 156.654C90.2931 155.526 86.0137 153.751 82.3431 150.765C79.5519 148.524 77.2113 145.768 75.4468 142.645C73.6127 139.381 72.4159 135.795 71.921 132.079C71.5798 129.572 71.5453 127.02 72.0613 124.498C72.4327 122.673 72.7263 120.831 73.0696 119C73.1692 118.658 73.2933 118.323 73.441 117.999Z" fill="#1F1F1F"/>
<path d="M114.046 159.601C114.046 157.887 114.089 156.173 114.046 154.459C113.86 148.079 112.569 141.951 109.728 136.212C104.904 126.476 97.157 120.368 86.7392 117.633C83.8277 116.839 80.8275 116.422 77.8111 116.391H73.7627C73.9441 116.15 73.998 116.011 74.0607 116.004C83.2543 115.224 91.8412 117.027 99.5019 122.354C107.162 127.68 111.731 135.076 113.726 144.135C114.622 148.201 115.022 152.326 114.577 156.499C114.469 157.518 114.411 158.543 114.331 159.566L114.046 159.601Z" fill="#6B605A"/>
<path d="M113.977 117.121C108.333 116.836 102.87 115.818 98.077 112.559C94.4065 110.063 91.8652 106.67 90.5848 102.369C90.0743 100.682 89.9409 98.9014 90.194 97.1559C90.6647 93.9105 92.921 91.621 96.1683 91.0084C98.5434 90.5588 100.86 90.8325 103.095 91.5775C110.38 94.0039 116.076 98.494 120.031 105.143C120.874 106.549 121.464 108.093 121.774 109.705C121.873 110.214 121.929 110.731 121.942 111.249C122.005 114.264 120.463 116.235 117.529 116.91C117.146 117.019 116.754 117.091 116.358 117.127C115.557 117.143 114.771 117.121 113.977 117.121Z" fill="white"/>
<path d="M160.036 117.212C158.557 117.212 157.097 117.175 155.683 116.673C152.826 115.661 151.693 113.402 152.047 110.452C152.273 108.663 152.868 106.94 153.793 105.395C157.889 98.4179 163.795 93.7556 171.514 91.4081C173.49 90.7819 175.586 90.6331 177.63 90.9737C181.251 91.6014 183.622 94.232 183.855 97.9379C184.015 100.479 183.423 102.851 182.314 105.106C180.215 109.401 176.935 112.492 172.615 114.421C168.616 116.204 164.393 117.071 160.036 117.212Z" fill="white"/>
<path d="M136.903 174.201C139.405 174.201 141.907 174.127 144.406 174.218C147.757 174.342 151.112 174.489 154.413 175.174C155.762 175.434 157.001 176.098 157.968 177.079C158.934 178.06 159.584 179.313 159.831 180.672C160.105 182.368 159.8 184.109 158.967 185.609C158.18 187.17 157.215 188.632 156.091 189.967C153.529 192.91 150.506 195.412 147.141 197.374C145.019 198.618 142.757 199.604 140.403 200.311C139.386 200.632 138.342 200.861 137.285 200.995C136.6 201.069 135.868 200.902 135.182 200.745C130.509 199.659 126.359 197.511 122.646 194.485C121.51 193.562 120.338 192.656 119.334 191.598C117.364 189.521 115.57 187.325 114.517 184.573C112.789 180.044 115.641 175.862 119.744 175.141C121.994 174.711 124.275 174.47 126.565 174.42C128.292 174.42 130.039 174.246 131.777 174.203C133.515 174.159 135.193 174.203 136.898 174.203L136.903 174.201Z" fill="#1F1F1F"/>
</g>
<defs>
<clipPath id="clip0_84_23">
    <rect width="273" height="308" fill="white"/>
</clipPath>
</defs>
</svg>
