<svg width="215" height="215" viewBox="0 0 215 215" fill="none" xmlns="http://www.w3.org/2000/svg">
<path d="M214.614 71.5404H156.266C152.869 71.5404 149.612 70.1912 147.21 67.7896C144.809 65.388 143.46 62.1307 143.46 58.7343V0L71.5404 0L71.5404 58.7343C71.5404 62.1307 70.1912 65.388 67.7896 67.7896C65.388 70.1912 62.1307 71.5404 58.7343 71.5404L0 71.5404L0 143.46H58.7343C62.1307 143.46 65.388 144.809 67.7896 147.21C70.1912 149.612 71.5404 152.869 71.5404 156.266V215L143.46 215V156.266C143.46 152.869 144.809 149.612 147.21 147.21C149.612 144.809 152.869 143.46 156.266 143.46H215L215 71.5404H214.614ZM84.7328 143.073C81.3364 143.073 78.0791 141.724 75.6775 139.323C73.2759 136.921 71.9267 133.664 71.9267 130.267V84.7328C71.9267 81.3364 73.2759 78.0791 75.6775 75.6775C78.0791 73.2759 81.3364 71.9267 84.7328 71.9267H130.267C133.664 71.9267 136.921 73.2759 139.323 75.6775C141.724 78.0791 143.073 81.3364 143.073 84.7328L143.073 130.267C143.073 133.664 141.724 136.921 139.323 139.323C136.921 141.724 133.664 143.073 130.267 143.073L84.7328 143.073ZM71.9267 13.1627C71.9345 9.77142 73.2872 6.52176 75.688 4.12657C78.0887 1.73139 81.3415 0.386254 84.7328 0.386263L130.267 0.386263C133.658 0.386254 136.911 1.73139 139.312 4.12657C141.713 6.52176 143.065 9.77142 143.073 13.1627V58.7046C143.073 62.101 141.724 65.3582 139.323 67.7599C136.921 70.1615 133.664 71.5107 130.267 71.5107H84.7328C81.3364 71.5107 78.0791 70.1615 75.6775 67.7599C73.2759 65.3582 71.9267 62.101 71.9267 58.7046L71.9267 13.1627V13.1627ZM0.386263 130.267L0.386263 84.7328C0.386254 81.3415 1.73139 78.0887 4.12657 75.688C6.52176 73.2872 9.77142 71.9345 13.1627 71.9267L58.7046 71.9267C60.3863 71.9267 62.0515 72.2579 63.6052 72.9015C65.159 73.545 66.5707 74.4883 67.7599 75.6775C68.949 76.8666 69.8923 78.2784 70.5359 79.8321C71.1794 81.3858 71.5107 83.051 71.5107 84.7328V130.267C71.5107 133.664 70.1615 136.921 67.7599 139.323C65.3582 141.724 62.101 143.073 58.7046 143.073H13.1627C9.77142 143.065 6.52176 141.713 4.12657 139.312C1.73139 136.911 0.386254 133.658 0.386263 130.267ZM143.073 201.837C143.073 205.234 141.724 208.491 139.323 210.893C136.921 213.294 133.664 214.643 130.267 214.643L84.7328 214.643C81.3364 214.643 78.0791 213.294 75.6775 210.893C73.2759 208.491 71.9267 205.234 71.9267 201.837V156.266C71.9267 154.584 72.2579 152.919 72.9015 151.365C73.545 149.811 74.4883 148.4 75.6775 147.21C76.8666 146.021 78.2784 145.078 79.8321 144.434C81.3858 143.791 83.051 143.46 84.7328 143.46L130.267 143.46C133.664 143.46 136.921 144.809 139.323 147.21C141.724 149.612 143.073 152.869 143.073 156.266V201.837ZM214.614 130.297C214.606 133.683 213.257 136.928 210.863 139.323C208.469 141.717 205.223 143.066 201.837 143.073H156.266C152.869 143.073 149.612 141.724 147.21 139.323C144.809 136.921 143.46 133.664 143.46 130.267L143.46 84.7328C143.46 81.3364 144.809 78.0791 147.21 75.6775C149.612 73.2759 152.869 71.9267 156.266 71.9267H201.837C205.234 71.9267 208.491 73.2759 210.893 75.6775C213.294 78.0791 214.643 81.3364 214.643 84.7328L214.614 130.297Z" fill="white"/>
</svg>
