<svg width="197" height="198" viewBox="0 0 197 198" fill="none" xmlns="http://www.w3.org/2000/svg">
<path d="M196.465 98.7348H116.353C111.688 98.7348 107.214 96.8723 103.916 93.5569C100.617 90.2416 98.7639 85.745 98.7639 81.0565V0H0V99.2652H80.6471C85.312 99.2652 89.7858 101.128 93.0844 104.443C96.383 107.758 98.2361 112.255 98.2361 116.944V198H197V98.7348H196.465ZM0.534682 81.0565V18.2436C0.529201 15.9198 0.979983 13.6177 1.8612 11.4693C2.74241 9.32087 4.03674 7.36831 5.67002 5.7235C7.30331 4.07868 9.24345 2.77393 11.3793 1.884C13.5151 0.994081 15.8047 0.536472 18.1168 0.537396H80.6471C82.9566 0.53648 85.2436 0.992886 87.3776 1.88054C89.5116 2.7682 91.4506 4.06972 93.084 5.71075C94.7174 7.35177 96.0131 9.30015 96.8971 11.4446C97.7811 13.589 98.2361 15.8875 98.2361 18.2087V81.0565C98.2361 85.745 96.383 90.2416 93.0844 93.5569C89.7858 96.8723 85.312 98.7348 80.6471 98.7348H18.1515C15.8391 98.7394 13.5485 98.2854 11.4109 97.399C9.27323 96.5125 7.33059 95.211 5.69417 93.5689C4.05775 91.9267 2.7597 89.9763 1.87436 87.8292C0.989015 85.6821 0.533764 83.3806 0.534682 81.0565V81.0565ZM196.465 179.791C196.466 182.112 196.012 184.41 195.129 186.555C194.246 188.699 192.951 190.648 191.318 192.289C189.685 193.93 187.746 195.232 185.613 196.119C183.479 197.007 181.192 197.464 178.883 197.463H116.388C114.078 197.464 111.791 197.007 109.657 196.119C107.523 195.232 105.584 193.93 103.951 192.289C102.317 190.648 101.022 188.7 100.138 186.555C99.2536 184.411 98.7986 182.112 98.7986 179.791V116.978C98.7986 112.29 100.652 107.793 103.95 104.478C107.249 101.163 111.723 99.3001 116.388 99.3001H178.883C181.193 99.3001 183.48 99.7574 185.613 100.646C187.747 101.534 189.685 102.837 191.318 104.478C192.951 106.12 194.246 108.069 195.129 110.214C196.012 112.359 196.466 114.657 196.465 116.978V179.791Z" fill="white"/>
</svg>
