<svg width="204" height="204" viewBox="0 0 204 204" fill="none" xmlns="http://www.w3.org/2000/svg">
<path d="M155.15 102H102V155.15C117.758 155.127 133.431 152.844 148.54 148.37C152.919 133.302 155.144 117.691 155.15 102V102Z" stroke="white" stroke-width="2.01" stroke-miterlimit="10"/>
<path d="M155.15 102C155.145 117.691 152.919 133.302 148.54 148.37C179.05 139.26 202.33 121.91 202.33 102H155.15Z" stroke="white" stroke-width="2.01" stroke-miterlimit="10"/>
<path d="M102 102H48.8496C48.852 117.737 51.0911 133.393 55.4996 148.5C70.6063 152.909 86.2628 155.148 102 155.15V155.15V102Z" stroke="white" stroke-width="2.01" stroke-miterlimit="10"/>
<path d="M148.41 55.5901C152.855 70.6603 155.124 86.2881 155.15 102H202.33C202.33 82.0601 179 64.6801 148.41 55.5901Z" stroke="white" stroke-width="2.01" stroke-miterlimit="10"/>
<path d="M148.41 55.5898C178.98 64.6798 202.33 82.0598 202.33 102C202.363 75.735 192.061 50.5118 173.65 31.7798C164.309 36.78 154.406 40.6505 144.15 43.3098C145.72 47.2298 147.15 51.3398 148.41 55.5898Z" stroke="white" stroke-width="2.01" stroke-miterlimit="10"/>
<path d="M55.5 148.5C56.73 152.7 58.13 156.76 59.66 160.63C73.4819 157.005 87.7107 155.164 102 155.15V155.15C86.2632 155.148 70.6067 152.909 55.5 148.5Z" stroke="white" stroke-width="2.01" stroke-miterlimit="10"/>
<path d="M59.8099 43.4099C58.2699 47.2599 56.8699 51.2899 55.6299 55.4599C70.6975 51.0808 86.3088 48.8554 102 48.8499C87.7623 48.8396 73.5844 47.0115 59.8099 43.4099V43.4099Z" stroke="white" stroke-width="2.01" stroke-miterlimit="10"/>
<path d="M144.15 43.3101C130.397 46.961 116.23 48.823 102 48.8501C117.712 48.8756 133.34 51.1452 148.41 55.5901C147.15 51.3401 145.72 47.2301 144.15 43.3101Z" stroke="white" stroke-width="2.01" stroke-miterlimit="10"/>
<path d="M144.3 160.73C145.86 156.79 147.3 152.65 148.54 148.37C133.431 152.844 117.758 155.127 102 155.15C116.282 155.175 130.5 157.05 144.3 160.73V160.73Z" stroke="white" stroke-width="2.01" stroke-miterlimit="10"/>
<path d="M102 102H155.15C155.124 86.2881 152.855 70.6603 148.41 55.5901C133.34 51.1452 117.712 48.8756 102 48.8501V48.8501V102Z" stroke="white" stroke-width="2.01" stroke-miterlimit="10"/>
<path d="M102 48.8501C86.3086 48.8556 70.6972 51.081 55.6296 55.4601C51.1558 70.5694 48.8726 86.2424 48.8496 102H102V48.8501Z" stroke="white" stroke-width="2.01" stroke-miterlimit="10"/>
<path d="M55.5 148.5C24.75 139.44 1.67 122 1.67 102C1.63694 128.206 11.8925 153.378 30.23 172.1C39.5471 167.116 49.4274 163.265 59.66 160.63C58.13 156.76 56.73 152.7 55.5 148.5Z" stroke="white" stroke-width="2.01" stroke-miterlimit="10"/>
<path d="M59.6599 160.63C69.3699 185.12 84.7199 202.33 102 202.33V155.15C87.7106 155.164 73.4818 157.005 59.6599 160.63V160.63Z" stroke="white" stroke-width="2.01" stroke-miterlimit="10"/>
<path d="M59.6605 160.63C49.4279 163.265 39.5475 167.116 30.2305 172.1C39.5634 181.683 50.724 189.296 63.0518 194.488C75.3795 199.681 88.6238 202.347 102 202.33C84.7205 202.33 69.3705 185.12 59.6605 160.63Z" stroke="white" stroke-width="2.01" stroke-miterlimit="10"/>
<path d="M144.3 160.73C130.5 157.05 116.282 155.175 102 155.15V202.33C119.26 202.33 134.59 185.17 144.3 160.73Z" stroke="white" stroke-width="2.01" stroke-miterlimit="10"/>
<path d="M148.54 148.37C147.28 152.65 145.86 156.79 144.3 160.73C154.503 163.388 164.355 167.245 173.65 172.22C192.061 153.488 202.363 128.265 202.33 102V102C202.33 121.91 179.05 139.26 148.54 148.37Z" stroke="white" stroke-width="2.01" stroke-miterlimit="10"/>
<path d="M102 202.33C115.348 202.347 128.564 199.692 140.87 194.52C153.175 189.349 164.321 181.767 173.65 172.22C164.354 167.245 154.503 163.388 144.3 160.73C134.59 185.17 119.26 202.33 102 202.33Z" stroke="white" stroke-width="2.01" stroke-miterlimit="10"/>
<path d="M55.63 55.4599C56.87 51.2899 58.27 47.2599 59.81 43.4099C49.5235 40.7753 39.5919 36.9108 30.23 31.8999C11.8925 50.6216 1.63694 75.7936 1.67 102C1.67 81.9999 24.82 64.5099 55.63 55.4599Z" stroke="white" stroke-width="2.01" stroke-miterlimit="10"/>
<path d="M59.8096 43.4099C73.5841 47.0115 87.762 48.8396 102 48.8499V48.8499V1.66992C84.8096 1.66992 69.5196 18.9999 59.8096 43.4099Z" stroke="white" stroke-width="2.01" stroke-miterlimit="10"/>
<path d="M102 48.8499C116.23 48.8229 130.397 46.9608 144.15 43.3099C134.44 18.9799 119.15 1.66992 102 1.66992V48.8499Z" stroke="white" stroke-width="2.01" stroke-miterlimit="10"/>
<path d="M55.4999 148.5C51.0914 133.393 48.8524 117.737 48.8499 102H1.66992C1.66992 122 24.7499 139.44 55.4999 148.5Z" stroke="white" stroke-width="2.01" stroke-miterlimit="10"/>
<path d="M102 1.67001C88.6238 1.6525 75.3795 4.31893 63.0518 9.51146C50.724 14.704 39.5634 22.3171 30.2305 31.9C39.5924 36.9109 49.5239 40.7754 59.8105 43.41C69.5205 19 84.8105 1.67001 102 1.67001Z" stroke="white" stroke-width="2.01" stroke-miterlimit="10"/>
<path d="M55.6299 55.46C24.8199 64.46 1.62988 81.96 1.62988 102H48.8099C48.8458 86.2403 51.1426 70.5673 55.6299 55.46Z" stroke="white" stroke-width="2.01" stroke-miterlimit="10"/>
<path d="M144.15 43.31C154.406 40.6507 164.309 36.7802 173.65 31.78C164.321 22.2333 153.175 14.6508 140.87 9.47952C128.564 4.30827 115.348 1.65292 102 1.67C119.17 1.67 134.44 19 144.15 43.31Z" stroke="white" stroke-width="2.01" stroke-miterlimit="10"/>
</svg>
