<svg width="24" height="24" viewBox="0 0 24 24" fill="none" xmlns="http://www.w3.org/2000/svg">
<path fill-rule="evenodd" clip-rule="evenodd" d="M23.6667 12.0002C23.6667 18.4435 18.4434 23.6668 12 23.6668C5.55672 23.6668 0.333374 18.4435 0.333374 12.0002C0.333374 5.55684 5.55672 0.333496 12 0.333496C18.4434 0.333496 23.6667 5.55684 23.6667 12.0002ZM12.4181 8.94636C11.2833 9.41834 9.01543 10.3952 5.61436 11.877C5.06208 12.0966 4.77277 12.3115 4.74643 12.5216C4.70192 12.8766 5.14655 13.0164 5.75201 13.2068C5.83436 13.2327 5.9197 13.2596 6.00718 13.288C6.60286 13.4816 7.40415 13.7082 7.82072 13.7172C8.19857 13.7253 8.62031 13.5695 9.08592 13.2498C12.2636 11.1048 13.904 10.0205 14.007 9.99717C14.0796 9.98068 14.1803 9.95995 14.2485 10.0206C14.3168 10.0812 14.31 10.196 14.3028 10.2268C14.2588 10.4146 12.5135 12.0372 11.6103 12.8769C11.3287 13.1387 11.129 13.3244 11.0882 13.3668C10.9967 13.4618 10.9035 13.5516 10.8139 13.638C10.2605 14.1715 9.84549 14.5715 10.8369 15.2248C11.3133 15.5388 11.6945 15.7984 12.0748 16.0574C12.4902 16.3403 12.9045 16.6224 13.4405 16.9737C13.577 17.0633 13.7075 17.1562 13.8345 17.2468C14.3179 17.5914 14.7521 17.901 15.2886 17.8516C15.6004 17.8229 15.9224 17.5298 16.086 16.6555C16.4724 14.5893 17.2322 10.1126 17.4077 8.26779C17.4231 8.10616 17.4038 7.89931 17.3882 7.80851C17.3727 7.71771 17.3402 7.58833 17.2222 7.49256C17.0824 7.37914 16.8666 7.35522 16.7701 7.35692C16.3313 7.36465 15.6581 7.59875 12.4181 8.94636Z" fill="#F85C27"/>
</svg>
