<svg width="24" height="20" viewBox="0 0 24 20" fill="none" xmlns="http://www.w3.org/2000/svg">
<path d="M21.2779 5.24002C21.2921 5.44572 21.2921 5.65142 21.2921 5.85902C21.2921 12.1846 16.4766 19.4798 7.67131 19.4798V19.4761C5.07019 19.4798 2.5231 18.7348 0.333374 17.3299C0.711599 17.3754 1.09172 17.3982 1.47279 17.3991C3.62838 17.401 5.72236 16.6778 7.41821 15.3459C5.36973 15.307 3.5734 13.9714 2.94587 12.0215C3.66346 12.1599 4.40284 12.1315 5.10716 11.939C2.87383 11.4878 1.26709 9.52562 1.26709 7.24679C1.26709 7.22593 1.26709 7.20603 1.26709 7.18612C1.93253 7.55676 2.67761 7.76246 3.43975 7.78521C1.33629 6.37943 0.6879 3.58114 1.95813 1.39331C4.38862 4.38404 7.97465 6.20217 11.8242 6.3946C11.4384 4.73193 11.9654 2.98963 13.2091 1.82083C15.1372 0.00838534 18.1697 0.101283 19.9821 2.02843C21.0542 1.81704 22.0818 1.42365 23.0221 0.866263C22.6647 1.97439 21.9168 2.91569 20.9177 3.51384C21.8666 3.40198 22.7937 3.14793 23.6667 2.76023C23.024 3.72333 22.2145 4.56225 21.2779 5.24002Z" fill="#F85C27"/>
</svg>
